<ttFont>
          <CharString index="0">
            26 6 -6 -26 hvcurveto
            -144 vlineto
            -26 -6 -6 -26 vhcurveto
            -65 103 -104 callgsubr
            181 return
          </CharString>
          <CharString index="1">
            -31 -15 -14 -25 -2 hvcurveto
            -3 hlineto
            25 -2 -16 14 -31 hhcurveto
            -86 hlineto
            -60 -30 -27 -62 hvcurveto
            -308 133 callgsubr
            return
          </CharString>
          <CharString index="2">
            289 callgsubr
            37 hlineto
            24 404 callsubr
            -65 50 -90 -296 4 callsubr
            108 -90 -96 vlineto
            -24 -5 -5 -23 284 callgsubr
            return
          </CharString>
          <CharString index="3">
            -103 callgsubr
            29 68 return
          </CharString>
          <CharString index="4">
            rmoveto
            -76 callsubr
            23 vhcurveto
            57 hlineto
            return
          </CharString>
          <CharString index="5">
            -6 -85 callsubr
            return
          </CharString>
          <CharString index="6">
            11 11 4 18 24 vvcurveto
            129 vlineto
            13 -3 8 -5 5 vhcurveto
            return
          </CharString>
          <CharString index="7">
            -230 -98 callgsubr
            return
          </CharString>
          <CharString index="8">
            -72 callsubr
            -89 -100 callgsubr
          </CharString>
          <CharString index="9">
            vlineto
            -53 callgsubr
            return
          </CharString>
          <CharString index="10">
            -86 callsubr
            101 vlineto
            25 -34 callsubr
            68 70 -68 -86 callsubr
            -45 callgsubr
            return
          </CharString>
          <CharString index="11">
            -8 callgsubr
            5 -5 -24 hvcurveto
            -287 -13 callgsubr
            -211 -11 callgsubr
            145 vlineto
            25 -34 callsubr
            36 70 -36 -86 callsubr
            149 vlineto
            33 8 0 47 -2 vhcurveto
            -7 1 rlineto
            return
          </CharString>
          <CharString index="12">
            -61 29 -86 callgsubr
            return
          </CharString>
          <CharString index="13">
            -275 -137 1 hlineto
            25 3 14 16 30 vvcurveto
            139 147 callsubr
            -91 91 79 -75 callgsubr
            36 84 callgsubr
            -110 vlineto
            322 callsubr
            -60 -71 60 436 callsubr
            -24 hvcurveto
            -107 -36 callsubr
            -36 -11 callgsubr
            81 -91 -93 vlineto
            -57 27 -30 65 vhcurveto
            91 hlineto
            256 callgsubr
            117 98 -282 89 556 return
          </CharString>
          <CharString index="14">
            rmoveto
            106 vlineto
            23 6 6 24 vhcurveto
            49 178 callgsubr
            -106 vlineto
            -103 206 64 callsubr
            96 186 callgsubr
            -88 -40 vlineto
            -24 -6 -6 -24 vhcurveto
            -46 hlineto
            -24 -6 6 23 hvcurveto
            116 197 183 252 callgsubr
            -65 vhcurveto
            endchar
          </CharString>
          <CharString index="15">
            -54 callgsubr
            -24 hvcurveto
            return
          </CharString>
          <CharString index="16">
            -84 vlineto
            -22 callgsubr
            64 vhcurveto
            55 224 callsubr
            -23 hvcurveto
            -103 -36 callsubr
            -39 167 callgsubr
            67 -90 -79 vlineto
            -11 callsubr
            169 callsubr
            127 vlineto
            57 -27 28 -65 vhcurveto
            -54 410 callgsubr
            60 -75 callgsubr
            return
          </CharString>
          <CharString index="17">
            rmoveto
            208 callsubr
            -45 -79 callsubr
            131 -79 callgsubr
            75 hlineto
            return
          </CharString>
          <CharString index="18">
            -65 -27 -27 -58 -84 callsubr
            return
          </CharString>
          <CharString index="19">
            vlineto
            -95 callsubr
            return
          </CharString>
          <CharString index="20">
            hlineto
            322 callgsubr
            return
          </CharString>
          <CharString index="21">
            -43 callsubr
            25 hvcurveto
            return
          </CharString>
          <CharString index="22">
            5 25 hvcurveto
            return
          </CharString>
          <CharString index="23">
            hvcurveto
            -230 -71 callsubr
            return
          </CharString>
          <CharString index="24">
            rmoveto
            -24 -6 -6 -24 vhcurveto
            -55 hlineto
            -24 338 callgsubr
            286 6 callsubr
            55 11 callsubr
            -6 -24 hvcurveto
            -111 101 rmoveto
            -64 151 callsubr
            64 vhcurveto
            107 hlineto
            65 28 31 57 hvcurveto
            311 vlineto
            58 350 callgsubr
          </CharString>
          <CharString index="25">
            hlineto
            -77 callgsubr
            return
          </CharString>
          <CharString index="26">
            -60 callgsubr
            vlineto
            return
          </CharString>
          <CharString index="27">
            11 -99 callsubr
          </CharString>
          <CharString index="28">
            hlineto
            -65 callgsubr
            return
          </CharString>
          <CharString index="29">
            hlineto
            67 -55 callsubr
            return
          </CharString>
          <CharString index="30">
            277 callsubr
            -144 -68 callsubr
            return
          </CharString>
          <CharString index="31">
            -17 callsubr
            205 -98 callsubr
            return
          </CharString>
          <CharString index="32">
            hlineto
            17 -80 callsubr
          </CharString>
          <CharString index="33">
            -61 31 -28 65 vhcurveto
            -54 callsubr
          </CharString>
          <CharString index="34">
            -49 callsubr
            152 callgsubr
            return
          </CharString>
          <CharString index="35">
            3 8 8 hvcurveto
            return
          </CharString>
          <CharString index="36">
            -78 callgsubr
            245 return
          </CharString>
          <CharString index="37">
            -47 callgsubr
            -86 hlineto
            return
          </CharString>
          <CharString index="38">
            -5 -24 vhcurveto
            -29 -68 57 hlineto
            65 27 28 57 hvcurveto
            230 239 callsubr
          </CharString>
          <CharString index="39">
            vlineto
            -34 callgsubr
            return
          </CharString>
          <CharString index="40">
            rmoveto
            70 -588 -70 249 -376 vlineto
            -24 -8 -8 -24 vhcurveto
            -38 hlineto
            -23 -6 5 25 hvcurveto
            207 vlineto
            24 6 5 23 vhcurveto
            29 68 -56 hlineto
            -65 -27 -27 -58 hvcurveto
            -230 27 callgsubr
          </CharString>
          <CharString index="41">
            rmoveto
            -61 callgsubr
            return
          </CharString>
          <CharString index="42">
            5 6 3 8 11 vvcurveto
            154 vlineto
            62 -29 27 -67 vhcurveto
            -83 hlineto
            -67 -29 -27 -62 hvcurveto
            -149 vlineto
            -15 3 -10 7 -7 vhcurveto
            -43 -7 -18 -33 -46 vvcurveto
            -128 vlineto
            -57 29 -28 56 vhcurveto
            107 hlineto
            20 12 4 10 8 hvcurveto
            -89 91 229 -91 -48 vlineto
            -27 -10 -9 -27 vhcurveto
            -75 -87 callsubr
            103 -58 callgsubr
            return
          </CharString>
          <CharString index="43">
            -24 -8 -8 -46 callsubr
            return
          </CharString>
          <CharString index="44">
            vlineto
            6 callgsubr
            return
          </CharString>
          <CharString index="45">
            -72 callgsubr
            -116 -97 callsubr
            140 callsubr
            -39 311 callgsubr
            -57 hvcurveto
            return
          </CharString>
          <CharString index="46">
            -33 callgsubr
            -138 hlineto
            return
          </CharString>
          <CharString index="47">
            -85 callsubr
            204 vlineto
            5 -7 18 -38 30 -56 77 -132 rcurveline
            -1 return
          </CharString>
          <CharString index="48">
            -52 callsubr
            230 vlineto
            62 140 callsubr
            return
          </CharString>
          <CharString index="49">
            24 -34 callsubr
            return
          </CharString>
          <CharString index="50">
            vlineto
            -59 callgsubr
            return
          </CharString>
          <CharString index="51">
            27 -9 -22 12 -31 hhcurveto
            -36 hlineto
            -62 -28 -31 -58 hvcurveto
            -311 -47 callsubr
            return
          </CharString>
          <CharString index="52">
            29 -46 callgsubr
            return
          </CharString>
          <CharString index="53">
            160 hlineto
            16 12 -99 callsubr
          </CharString>
          <CharString index="54">
            -308 -38 callsubr
            return
          </CharString>
          <CharString index="55">
            27 28 57 hvcurveto
            return
          </CharString>
          <CharString index="56">
            -82 callsubr
            115 -63 callsubr
            23 vhcurveto
            54 26 callgsubr
            -44 90 55 vlineto
            62 -29 27 -67 vhcurveto
            -78 98 callsubr
            return
          </CharString>
          <CharString index="57">
            68 vlineto
            21 callgsubr
            endchar
          </CharString>
          <CharString index="58">
            -61 29 -28 45 callsubr
            return
          </CharString>
          <CharString index="59">
            -55 callgsubr
            33 return
          </CharString>
          <CharString index="60">
            vlineto
            -57 -50 callgsubr
            return
          </CharString>
          <CharString index="61">
            -23 -28 callgsubr
            return
          </CharString>
          <CharString index="62">
            57 -27 30 -65 269 callgsubr
            24 vhcurveto
            33 -92 callsubr
            return
          </CharString>
          <CharString index="63">
            -30 callgsubr
            221 callgsubr
            68 29 28 61 hvcurveto
            109 vlineto
            62 -29 27 -68 -19 callsubr
            return
          </CharString>
          <CharString index="64">
            hlineto
            11 callgsubr
            return
          </CharString>
          <CharString index="65">
            -64 callgsubr
            -6 5 25 hvcurveto
            return
          </CharString>
          <CharString index="66">
            57 -27 30 -64 vhcurveto
            -117 -70 89 35 callgsubr
            -205 80 callgsubr
            81 -90 -92 vlineto
            -49 callsubr
            29 28 61 hvcurveto
            return
          </CharString>
          <CharString index="67">
            27 59 hvcurveto
            201 vlineto
            13 -3 8 -5 5 vhcurveto
            return
          </CharString>
          <CharString index="68">
            -56 -21 callsubr
            return
          </CharString>
          <CharString index="69">
            -88 callsubr
            114 -90 -103 vlineto
            -25 -6 -5 -24 vhcurveto
            -30 -70 callgsubr
            return
          </CharString>
          <CharString index="70">
            -124 -99 hlineto
            -68 callgsubr
            return
          </CharString>
          <CharString index="71">
            vlineto
            -7 callsubr
            return
          </CharString>
          <CharString index="72">
            -27 40 callsubr
            return
          </CharString>
          <CharString index="73">
            5 5 24 vhcurveto
            return
          </CharString>
          <CharString index="74">
            175 callgsubr
            196 70 -498 -70 188 hlineto
            277 callsubr
            -179 377 callgsubr
            158 -91 -384 hlineto
            -60 32 -27 69 vhcurveto
            242 73 -221 96 callsubr
            474 524 rmoveto
            -64 31 callgsubr
            5 5 23 vhcurveto
            37 hlineto
            24 404 callsubr
            -65 50 -90 -164 200 callsubr
            28 68 -52 136 callsubr
            91 177 callsubr
            108 -90 -96 vlineto
            -24 -6 -5 -22 284 callgsubr
            172 -2 rmoveto
            -626 89 556 73 70 vlineto
            endchar
          </CharString>
          <CharString index="75">
            -11 callsubr
            57 73 -30 -74 callgsubr
            return
          </CharString>
          <CharString index="76">
            vlineto
            -61 29 -28 67 vhcurveto
            56 hlineto
            17 -63 callgsubr
            -89 90 271 -90 -91 vlineto
            50 callgsubr
            endchar
          </CharString>
          <CharString index="77">
            -24 17 callgsubr
            return
          </CharString>
          <CharString index="78">
            vhcurveto
            38 hlineto
            24 5 222 callgsubr
            -5 -5 -24 vhcurveto
            -29 -68 57 hlineto
            return
          </CharString>
          <CharString index="79">
            -68 57 hlineto
            65 -59 callsubr
            return
          </CharString>
          <CharString index="80">
            rmoveto
            7 callsubr
            378 90 vlineto
            return
          </CharString>
          <CharString index="81">
            -5 callsubr
            -6 7 vhcurveto
            94 hlineto
            return
          </CharString>
          <CharString index="82">
            381 callsubr
            194 275 callgsubr
            return
          </CharString>
          <CharString index="83">
            rmoveto
            108 vlineto
            57 -29 31 -65 vhcurveto
            -106 204 callsubr
            -58 29 -31 64 vhcurveto
            106 hlineto
            65 29 31 58 hvcurveto
            106 -92 -95 vlineto
            -24 -5 201 callgsubr
            5 -5 -24 hvcurveto
            -96 vlineto
            endchar
          </CharString>
          <CharString index="84">
            -77 callgsubr
            171 129 callgsubr
            18 -47 31 -62 vhcurveto
            97 385 callsubr
            -3 -9 -4 -17 hhcurveto
            return
          </CharString>
          <CharString index="85">
            76 callgsubr
            -51 21 -28 51 -5 vhcurveto
            -79 -142 28 callsubr
            -79 143 rlineto
            46 7 19 28 48 vvcurveto
            127 vlineto
            57 -27 28 -65 vhcurveto
            -54 410 callgsubr
            60 -75 callgsubr
            return
          </CharString>
          <CharString index="86">
            hlineto
            -30 callgsubr
            return
          </CharString>
          <CharString index="87">
            182 213 callsubr
            return
          </CharString>
          <CharString index="88">
            vhcurveto
            -65 -70 42 84 callgsubr
            -88 vlineto
            -25 -6 -5 -23 vhcurveto
            -65 -70 callgsubr
            return
          </CharString>
          <CharString index="89">
            110 callsubr
            -68 178 callsubr
            return
          </CharString>
          <CharString index="90">
            -25 -6 115 callgsubr
            return
          </CharString>
          <CharString index="91">
            26 101 callsubr
            return
          </CharString>
          <CharString index="92">
            rmoveto
            -104 callsubr
            -199 -23 callgsubr
            84 276 vlineto
            436 callgsubr
            -954 -70 249 -376 vlineto
            -107 callgsubr
            380 125 callgsubr
            60 hlineto
            -3 -10 -2 -11 -11 vvcurveto
            -213 27 callgsubr
          </CharString>
          <CharString index="93">
            -1 callgsubr
            -6 7 vhcurveto
            return
          </CharString>
          <CharString index="94">
            -378 -103 callsubr
            return
          </CharString>
          <CharString index="95">
            482 rmoveto
            -53 -4 -27 -25 -56 vvcurveto
            -132 -96 callsubr
            146 hlineto
            return
          </CharString>
          <CharString index="96">
            -22 callgsubr
            65 vhcurveto
            return
          </CharString>
          <CharString index="97">
            90 -60 callgsubr
            return
          </CharString>
          <CharString index="98">
            rmoveto
            -23 callsubr
            return
          </CharString>
          <CharString index="99">
            213 callsubr
            158 26 190 callgsubr
            -465 -378 154 callgsubr
            23 vhcurveto
            72 hlineto
            628 290 rmoveto
            -454 -70 75 hlineto
            426 callgsubr
            -88 413 callgsubr
            -173 133 -48 callgsubr
            -121 308 callsubr
            -155 24 callsubr
            169 84 -169 vlineto
            -61 31 362 callgsubr
            72 vlineto
            endchar
          </CharString>
          <CharString index="100">
            -24 -6 -5 -23 vhcurveto
            return
          </CharString>
          <CharString index="101">
            rmoveto
            20 3 5 23 vhcurveto
            33 hlineto
            23 3 -5 -20 hvcurveto
            -7 vlineto
            -20 -3 -5 -23 vhcurveto
            -33 hlineto
            -23 -3 5 20 hvcurveto
            75 -75 rmoveto
            51 22 23 47 hvcurveto
            17 vlineto
            47 -22 23 -51 vhcurveto
            -65 hlineto
            -51 -22 -23 -47 hvcurveto
            -17 vlineto
            -47 22 -23 51 vhcurveto
            return
          </CharString>
          <CharString index="102">
            rmoveto
            -72 callgsubr
            -139 43 callsubr
            return
          </CharString>
          <CharString index="103">
            613 868 -33 callgsubr
            -139 hlineto
            -23 -6 339 callgsubr
            -345 hlineto
            -61 -31 -25 -60 hvcurveto
            -135 -96 callsubr
            679 hlineto
            149 callgsubr
            -1050 -70 78 hlineto
            70 callgsubr
            return
          </CharString>
          <CharString index="104">
            -31 -15 -10 callgsubr
            return
          </CharString>
          <CharString index="105">
            -3 callsubr
            -2 -16 14 return
          </CharString>
          <CharString index="106">
            hlineto
            -89 callsubr
            return
          </CharString>
          <CharString index="107">
            vlineto
            25 8 7 return
          </CharString>
          <CharString index="108">
            -53 callsubr
            endchar
          </CharString>
          <CharString index="109">
            277 callsubr
            -191 377 callgsubr
            170 -91 -384 hlineto
            -60 32 -27 69 vhcurveto
            213 73 -192 96 callsubr
            127 423 callgsubr
            213 vlineto
            13 -3 8 -5 5 vhcurveto
            return
          </CharString>
          <CharString index="110">
            41 5 callgsubr
            return
          </CharString>
          <CharString index="111">
            hlineto
            -11 callsubr
            92 125 callsubr
            return
          </CharString>
          <CharString index="112">
            -24 1 callgsubr
            return
          </CharString>
          <CharString index="113">
            159 callgsubr
            24 vhcurveto
            return
          </CharString>
          <CharString index="114">
            -25 -6 -5 -23 vhcurveto
            -31 -79 callsubr
            return
          </CharString>
          <CharString index="115">
            -73 callsubr
            192 86 -192 22 callgsubr
          </CharString>
          <CharString index="116">
            rmoveto
            83 95 -83 hlineto
            return
          </CharString>
          <CharString index="117">
            rmoveto
            -53 -4 -27 -25 -56 vvcurveto
            -132 -96 callsubr
            146 hlineto
            228 hmoveto
            70 -583 -70 78 vlineto
            70 callgsubr
            253 hlineto
            65 32 260 callgsubr
          </CharString>
          <CharString index="118">
            hlineto
            24 6 return
          </CharString>
          <CharString index="119">
            rmoveto
            208 callsubr
            -55 -70 callgsubr
            55 26 callgsubr
            156 174 rmoveto
            70 -433 -70 174 -74 -6 vlineto
            303 callgsubr
            return
          </CharString>
          <CharString index="120">
            85 callsubr
            -24 callgsubr
            return
          </CharString>
          <CharString index="121">
            22 callsubr
            -30 vvcurveto
            return
          </CharString>
          <CharString index="122">
            51 callsubr
            35 hlineto
            return
          </CharString>
          <CharString index="123">
            251 549 rmoveto
            52 -23 25 -55 vhcurveto
            -66 hlineto
            -55 -23 -25 -52 hvcurveto
            -184 vlineto
            -51 23 -26 55 vhcurveto
            66 hlineto
            55 23 26 51 hvcurveto
            361 -104 rmoveto
            51 -23 26 -54 vhcurveto
            -67 hlineto
            -54 -24 -26 -51 hvcurveto
            -184 vlineto
            -51 24 -26 54 vhcurveto
            67 hlineto
            54 23 26 51 hvcurveto
            -435 300 rmoveto
            -23 -4 -5 -22 vhcurveto
            -22 hlineto
            -23 -3 5 23 hvcurveto
            161 vlineto
            22 3 5 23 vhcurveto
            22 hlineto
            22 4 -5 -22 hvcurveto
            361 -450 rmoveto
            -22 -3 -5 -23 vhcurveto
            -21 hlineto
            -23 -4 5 22 hvcurveto
            162 vlineto
            22 4 5 23 vhcurveto
            21 hlineto
            23 3 -5 -22 hvcurveto
            -109 376 rmoveto
            -291 -626 rlineto
            74 hlineto
            292 626 rlineto
            return
          </CharString>
          <CharString index="124" raw="1">
            ce1ef765 1d0b  
          </CharString>
          <CharString index="125">
            177 callsubr
            125 -90 163 callsubr
            -6 -5 -22 vhcurveto
            -38 hlineto
            return
          </CharString>
          <CharString index="126">
            vlineto
            -30 callsubr
            return
          </CharString>
          <CharString index="127">
            rmoveto
            95 206 callsubr
            -107 204 callsubr
            -58 29 -31 64 vhcurveto
            107 hlineto
            64 29 31 58 hvcurveto
            234 -141 -70 50 -153 vlineto
            -24 -6 201 callgsubr
            6 -5 -24 hvcurveto
            -83 vlineto
            endchar
          </CharString>
          <CharString index="128">
            -61 140 callgsubr
            160 -75 callsubr
          </CharString>
          <CharString index="129">
            24 163 callgsubr
            -24 -3 -15 -15 return
          </CharString>
          <CharString index="130">
            -31 15 -16 24 366 callgsubr
            -24 -2 -15 -15 -31 vvcurveto
            return
          </CharString>
          <CharString index="131">
            vlineto
            -61 29 -28 67 vhcurveto
            89 -78 callsubr
            return
          </CharString>
          <CharString index="132">
            291 callsubr
            -27 callgsubr
            return
          </CharString>
          <CharString index="133">
            vlineto
            15 -3 9 return
          </CharString>
          <CharString index="134">
            -70 241 -74 -95 vlineto
            -65 374 callgsubr
            65 vhcurveto
            78 301 callgsubr
            -70 55 -90 -198 90 75 98 348 callsubr
            88 vlineto
            57 -27 28 -65 vhcurveto
            -79 276 callgsubr
            36 -62 callgsubr
            return
          </CharString>
          <CharString index="135">
            rlineto
            86 hlineto
            63 124 62 -124 rlineto
            86 hlineto
            return
          </CharString>
          <CharString index="136">
            3 233 callsubr
            return
          </CharString>
          <CharString index="137">
            -8 253 379 rmoveto
            -23 -5 -6 -24 vhcurveto
            -59 hlineto
            -24 -5 6 23 hvcurveto
            146 347 callsubr
            59 178 callgsubr
            -423 vmoveto
            -24 -5 -6 -24 vhcurveto
            -59 hlineto
            -24 338 callgsubr
            150 347 callsubr
            59 178 callgsubr
            89 286 rmoveto
            223 callsubr
            -109 143 callgsubr
            -161 vlineto
            -34 13 -22 26 -6 vhcurveto
            -26 -7 -13 -18 -34 vvcurveto
            -168 134 callsubr
            109 hlineto
            135 callgsubr
            168 vlineto
            34 -13 18 -26 7 vhcurveto
            26 6 13 22 34 vvcurveto
            endchar
          </CharString>
          <CharString index="138">
            rmoveto
            -697 43 callgsubr
            139 423 callgsubr
            201 vlineto
            13 -3 8 -5 5 vhcurveto
            236 -342 hlineto
            -26 -10 -9 -27 vhcurveto
            -31 hlineto
            283 callgsubr
            -57 26 -28 53 -4 vhcurveto
            -112 -160 rlineto
            96 hlineto
            121 176 rlineto
            -124 87 -101 callgsubr
          </CharString>
          <CharString index="139">
            -46 callgsubr
            245 82 -412 -100 callgsubr
          </CharString>
          <CharString index="140">
            323 callgsubr
            -171 15 callgsubr
            return
          </CharString>
          <CharString index="141">
            rmoveto
            -30 callsubr
            return
          </CharString>
          <CharString index="142" raw="1">
            ca069c96 8e0b  
          </CharString>
          <CharString index="143">
            -70 72 -471 hlineto
            -11 callsubr
            123 177 callsubr
            117 -90 -105 vlineto
            -24 -6 -5 -22 vhcurveto
            -70 276 callgsubr
            459 129 -176 -13 callgsubr
            -41 -70 69 hlineto
            64 386 callgsubr
            190 64 vlineto
            endchar
          </CharString>
          <CharString index="144">
            rmoveto
            -697 -90 callgsubr
            236 -339 hlineto
            -35 callgsubr
            -125 87 -101 callgsubr
          </CharString>
          <CharString index="145">
            -33 -17 306 callgsubr
            -18 14 -33 hhcurveto
            -104 380 callgsubr
            -226 399 callgsubr
            33 18 15 24 2 hvcurveto
            3 hlineto
            -24 2 17 -15 33 hhcurveto
            103 hlineto
            59 152 callgsubr
            226 vlineto
            62 -30 27 -59 vhcurveto
            return
          </CharString>
          <CharString index="146">
            46 callsubr
            90 return
          </CharString>
          <CharString index="147">
            -27 -58 hvcurveto
            return
          </CharString>
          <CharString index="148">
            -6 callgsubr
            -74 55 -90 -198 90 75 102 hlineto
            120 callsubr
            return
          </CharString>
          <CharString index="149">
            rmoveto
            -72 callgsubr
            -139 -82 callsubr
            204 -16 callsubr
            58 vlineto
            13 -3 9 -5 7 vhcurveto
            93 hlineto
            149 callgsubr
            -872 -70 496 hlineto
            37 4 -4 -26 hvcurveto
            -45 19 callsubr
            -263 -274 hlineto
            7 callsubr
            274 -90 -285 267 callsubr
            84 -215 vlineto
            21 callsubr
          </CharString>
          <CharString index="150">
            -82 callsubr
            129 26 251 callgsubr
            return
          </CharString>
          <CharString index="151">
            vhcurveto
            -37 -79 callsubr
            return
          </CharString>
          <CharString index="152">
            67 226 callsubr
            return
          </CharString>
          <CharString index="153">
            -56 callsubr
            -39 return
          </CharString>
          <CharString index="154">
            -18 callsubr
            -104 hlineto
            return
          </CharString>
          <CharString index="155">
            rmoveto
            -273 hlineto
            -18 45 callgsubr
            85 310 vlineto
            -469 -408 -18 callgsubr
            593 478 rmoveto
            -817 13 callgsubr
            380 125 callgsubr
            67 hlineto
            192 callgsubr
            -312 vlineto
            -22 callgsubr
            64 vhcurveto
            57 73 -29 74 callgsubr
          </CharString>
          <CharString index="156">
            302 callsubr
            -64 368 callsubr
            23 6 -5 -24 hvcurveto
            return
          </CharString>
          <CharString index="157">
            rmoveto
            88 -92 callsubr
            -170 19 callsubr
            -88 hlineto
            143 -325 rmoveto
            97 hlineto
            -99 255 rlineto
            47 8 20 29 50 vvcurveto
            196 411 callgsubr
            -205 -626 90 253 49 hlineto
            endchar
          </CharString>
          <CharString index="158">
            322 callgsubr
            284 -79 callgsubr
            return
          </CharString>
          <CharString index="159">
            -11 callgsubr
            422 -75 callgsubr
            return
          </CharString>
          <CharString index="160">
            144 73 -144 193 174 73 -265 -626 272 73 return
          </CharString>
          <CharString index="161">
            33 callgsubr
            132 -62 callgsubr
            72 hlineto
            357 378 callgsubr
            -105 131 -48 callgsubr
            -119 -99 vlineto
            -30 callgsubr
            -157 24 callsubr
            172 105 -339 113 callsubr
          </CharString>
          <CharString index="162">
            139 callsubr
            206 callgsubr
            386 -90 return
          </CharString>
          <CharString index="163">
            rmoveto
            -100 hlineto
            -82 -132 rlineto
            77 hlineto
            return
          </CharString>
          <CharString index="164">
            27 -9 -22 12 -31 hhcurveto
            -36 346 callgsubr
            -304 vlineto
            -58 -50 callgsubr
            -83 vlineto
            -23 -6 -6 -24 vhcurveto
            -141 -71 167 hlineto
            65 29 30 58 hvcurveto
            538 return
          </CharString>
          <CharString index="165">
            -687 61 callsubr
          </CharString>
          <CharString index="166">
            72 callsubr
            -57 29 -31 return
          </CharString>
          <CharString index="167">
            39 callsubr
            488 return
          </CharString>
          <CharString index="168">
            -76 callgsubr
            endchar
          </CharString>
          <CharString index="169">
            -553 66 callsubr
          </CharString>
          <CharString index="170">
            rmoveto
            -439 vlineto
            -128 439 rlineto
            -95 -626 83 452 hlineto
            132 -452 rlineto
            91 626 hlineto
            return
          </CharString>
          <CharString index="171">
            rmoveto
            16 callgsubr
            return
          </CharString>
          <CharString index="172">
            -19 158 327 rmoveto
            -24 -6 6 23 hvcurveto
            168 -79 callgsubr
            53 35 callgsubr
            -197 vlineto
            -109 299 rmoveto
            187 callgsubr
            -193 414 callgsubr
            109 -154 hlineto
            5 callsubr
            -51 hlineto
            -25 -5 5 24 hvcurveto
            93 -90 -107 207 callgsubr
            103 hlineto
            129 callsubr
            450 vlineto
            57 -29 31 -65 vhcurveto
            endchar
          </CharString>
          <CharString index="173">
            -73 callgsubr
            endchar
          </CharString>
          <CharString index="174">
            -70 66 90 callsubr
            return
          </CharString>
          <CharString index="175">
            rmoveto
            -24 -6 6 23 hvcurveto
            278 299 callsubr
            -266 332 callgsubr
            409 rmoveto
            -39 vlineto
            57 callsubr
            vlineto
            endchar
          </CharString>
          <CharString index="176">
            52 -28 -24 16 -72 hhcurveto
            -51 -72 32 hlineto
            42 14 -16 -38 20 hvcurveto
            59 214 callsubr
            return
          </CharString>
          <CharString index="177">
            84 callsubr
            -90 return
          </CharString>
          <CharString index="178">
            -6 95 callgsubr
            return
          </CharString>
          <CharString index="179">
            170 callgsubr
            -450 vlineto
            return
          </CharString>
          <CharString index="180">
            vlineto
            11 11 4 17 25 vvcurveto
            131 vlineto
            57 -27 31 -69 vhcurveto
            -67 hlineto
            -69 -27 -31 -57 hvcurveto
            -164 vlineto
            -56 25 -31 65 -2 vhcurveto
            -144 -137 rlineto
            108 hlineto
            144 137 rlineto
            return
          </CharString>
          <CharString index="181">
            hlineto
            -23 71 callsubr
            return
          </CharString>
          <CharString index="182">
            78 callgsubr
            381 406 rmoveto
            -597 -70 246 -74 -92 hlineto
            88 callgsubr
            99 -314 92 callgsubr
          </CharString>
          <CharString index="183">
            336 callsubr
            -53 74 callsubr
            23 vhcurveto
            38 70 -219 -70 73 hlineto
            -7 -6 -4 -10 -16 204 callgsubr
            74 hlineto
            return
          </CharString>
          <CharString index="184">
            rmoveto
            -17 callsubr
            152 -62 callgsubr
            57 hlineto
            return
          </CharString>
          <CharString index="185">
            333 callsubr
            -61 205 callsubr
            -84 -43 vlineto
            -58 29 -31 65 vhcurveto
            return
          </CharString>
          <CharString index="186">
            rmoveto
            -102 callgsubr
            return
          </CharString>
          <CharString index="187">
            -23 -6 4 23 hvcurveto
            22 vlineto
            23 6 4 23 vhcurveto
            63 return
          </CharString>
          <CharString index="188">
            -11 callsubr
            91 278 callsubr
            274 -278 -100 callgsubr
          </CharString>
          <CharString index="189">
            -60 32 -27 68 vhcurveto
            242 73 -220 hlineto
            -26 -6 5 26 hvcurveto
            139 61 vlineto
            64 -40 callgsubr
            236 -339 hlineto
            -27 -11 -9 return
          </CharString>
          <CharString index="190">
            -6 132 callgsubr
            return
          </CharString>
          <CharString index="191">
            7 callsubr
            304 return
          </CharString>
          <CharString index="192">
            -70 66 25 callsubr
            return
          </CharString>
          <CharString index="193">
            rmoveto
            144 69 70 -406 385 callgsubr
            vlineto
            -30 callgsubr
            -308 vlineto
            -53 22 -28 49 -7 vhcurveto
            -79 -142 28 callsubr
            -80 144 rlineto
            42 9 19 28 49 vvcurveto
            114 -90 -103 vlineto
            -25 -6 -5 -24 vhcurveto
            -30 -70 callgsubr
            endchar
          </CharString>
          <CharString index="194">
            -90 hlineto
            22 -54 25 -56 14 -40 22 -40 rlinecurve
            -4 hlineto
            -26 43 -29 38 -55 61 -42 48 rcurveline
            return
          </CharString>
          <CharString index="195">
            74 hlineto
            67 30 32 callsubr
          </CharString>
          <CharString index="196">
            -103 callsubr
            335 214 rmoveto
            return
          </CharString>
          <CharString index="197">
            184 callgsubr
            -24 callgsubr
            -89 90 return
          </CharString>
          <CharString index="198">
            -65 187 callsubr
            return
          </CharString>
          <CharString index="199">
            -61 32 -28 65 vhcurveto
            4 callgsubr
          </CharString>
          <CharString index="200">
            5 callsubr
            -42 274 callgsubr
            -91 -92 134 callsubr
            return
          </CharString>
          <CharString index="201">
            247 callsubr
            107 166 rlineto
            return
          </CharString>
          <CharString index="202">
            272 callsubr
            94 hlineto
            return
          </CharString>
          <CharString index="203">
            hlineto
            -26 -5 5 26 hvcurveto
            return
          </CharString>
          <CharString index="204">
            hhcurveto
            4 callgsubr
          </CharString>
          <CharString index="205">
            -74 callgsubr
            41 97 callgsubr
            return
          </CharString>
          <CharString index="206">
            -70 72 25 callsubr
            return
          </CharString>
          <CharString index="207">
            24 5 -5 -24 hvcurveto
            return
          </CharString>
          <CharString index="208">
            vlineto
            65 18 callgsubr
            return
          </CharString>
          <CharString index="209">
            208 callsubr
            -82 -79 callsubr
            119 -63 callsubr
            23 vhcurveto
            return
          </CharString>
          <CharString index="210">
            -14 callgsubr
            350 98 vlineto
            229 hmoveto
            70 -484 227 callgsubr
            107 70 -102 -3 callgsubr
          </CharString>
          <CharString index="211">
            -69 115 524 rmoveto
            -53 callgsubr
            24 vhcurveto
            32 hlineto
            25 5 -5 -24 hvcurveto
            -46 vlineto
            -47 -6 -31 -22 -42 vhcurveto
            -153 -288 rlineto
            -70 276 73 -174 vlineto
            135 265 rlineto
            25 48 10 36 53 vvcurveto
            63 vlineto
            57 -30 31 -64 vhcurveto
            -86 143 callgsubr
            -116 90 vlineto
            endchar
          </CharString>
          <CharString index="212">
            182 225 callgsubr
            return
          </CharString>
          <CharString index="213">
            208 callgsubr
            4 hlineto
            320 callsubr
            return
          </CharString>
          <CharString index="214">
            -24 -5 -85 callsubr
            90 vlineto
            25 -34 callsubr
            68 70 -68 -86 callsubr
            106 -75 callgsubr
            9 -92 callsubr
            -43 60 58 vlineto
            57 140 callsubr
            -39 311 callgsubr
            -57 hvcurveto
            -137 vlineto
            -30 15 -16 14 callsubr
            return
          </CharString>
          <CharString index="215">
            rmoveto
            -47 vlineto
            -24 -5 -6 -25 vhcurveto
            -88 320 callgsubr
            47 -80 363 callgsubr
            vlineto
            endchar
          </CharString>
          <CharString index="216">
            -79 -141 147 callgsubr
            return
          </CharString>
          <CharString index="217">
            0 vhcurveto
            0 -25 50 -28 46 vhcurveto
            return
          </CharString>
          <CharString index="218">
            hlineto
            289 callsubr
            84 -412 -100 callgsubr
          </CharString>
          <CharString index="219">
            hlineto
            27 5 185 callgsubr
            return
          </CharString>
          <CharString index="220">
            91 160 callsubr
          </CharString>
          <CharString index="221">
            99 callsubr
            105 hlineto
            26 18 7 15 14 hvcurveto
            -15 16 22 -7 35 hhcurveto
            return
          </CharString>
          <CharString index="222">
            hlineto
            -31 -15 -15 -24 -2 hvcurveto
            -3 hlineto
            24 -2 -16 15 -31 hhcurveto
            -86 hlineto
            -60 -30 -28 -61 hvcurveto
            -251 vlineto
            -22 callgsubr
            64 vhcurveto
            87 73 -59 -74 callgsubr
            224 -63 callsubr
            23 vhcurveto
            32 hlineto
            24 5 -6 -24 hvcurveto
            -164 90 164 6 callsubr
            return
          </CharString>
          <CharString index="223">
            440 178 rmoveto
            -25 1 callgsubr
            -54 320 callgsubr
            204 408 callsubr
            54 hlineto
            24 5 -5 -25 hvcurveto
            -201 -204 rmoveto
            -24 -5 -6 -24 vhcurveto
            -54 hlineto
            -24 317 callgsubr
            54 hlineto
            24 5 -6 -24 hvcurveto
            return
          </CharString>
          <CharString index="224">
            63 -75 callsubr
          </CharString>
          <CharString index="225">
            338 callsubr
            14 callsubr
            -131 vlineto
            -58 326 callgsubr
            return
          </CharString>
          <CharString index="226">
            rmoveto
            106 132 rlineto
            -90 hlineto
            -82 -132 rlineto
            53 132 rmoveto
            -90 hlineto
            -82 -132 rlineto
            66 hlineto
            return
          </CharString>
          <CharString index="227">
            277 callgsubr
            84 vlineto
            7 -1 7 -1 7 vhcurveto
            return
          </CharString>
          <CharString index="228">
            -24 -5 -85 callsubr
            378 98 return
          </CharString>
          <CharString index="229">
            -230 292 callgsubr
            67 3 callgsubr
            -24 -5 5 24 hvcurveto
            181 return
          </CharString>
          <CharString index="230">
            157 callgsubr
            -6 5 23 hvcurveto
            282 -79 callgsubr
            92 107 callgsubr
          </CharString>
          <CharString index="231">
            hlineto
            67 29 32 callsubr
          </CharString>
          <CharString index="232">
            hlineto
            64 -52 callsubr
            return
          </CharString>
          <CharString index="233">
            -84 hlineto
            -30 318 callsubr
            -16 14 -30 hhcurveto
            -87 380 callgsubr
            -213 vlineto
            -24 -8 -8 -23 vhcurveto
            return
          </CharString>
          <CharString index="234">
            251 callgsubr
            -7 7 vhcurveto
            94 hlineto
            return
          </CharString>
          <CharString index="235" raw="1">
            91f7721d 85860b  
          </CharString>
          <CharString index="236">
            65 36 callgsubr
            return
          </CharString>
          <CharString index="237">
            vlineto
            -61 -27 callgsubr
            78 371 callsubr
          </CharString>
          <CharString index="238">
            hlineto
            99 callgsubr
            return
          </CharString>
          <CharString index="239">
            27 5 5 27 vhcurveto
            35 70 -49 hlineto
            -59 -29 -28 -54 -25 4 -41 7 -32 hvcurveto
            -2 hlineto
            -10 28 -14 30 -23 32 -41 58 rcurveline
            return
          </CharString>
          <CharString index="240">
            -165 -242 rlineto
            102 hlineto
            135 198 rlineto
            return
          </CharString>
          <CharString index="241">
            vlineto
            -57 414 callsubr
            return
          </CharString>
          <CharString index="242">
            -70 597 -124 -451 hlineto
            91 callsubr
            -180 -78 callgsubr
            195 148 callsubr
            -180 182 callgsubr
            195 return
          </CharString>
          <CharString index="243">
            194 callsubr
            -40 vlineto
            -11 callsubr
            return
          </CharString>
          <CharString index="244">
            34 callgsubr
            181 275 179 callgsubr
          </CharString>
          <CharString index="245">
            vhcurveto
            -31 131 callgsubr
            return
          </CharString>
          <CharString index="246">
            -26 -10 -9 -23 vhcurveto
            return
          </CharString>
          <CharString index="247">
            -30 27 -60 vhcurveto
            return
          </CharString>
          <CharString index="248">
            -174 -304 hlineto
            70 callsubr
            return
          </CharString>
          <CharString index="249">
            -24 callgsubr
            -89 330 callsubr
            return
          </CharString>
          <CharString index="250">
            hlineto
            27 8 8 28 vhcurveto
            31 70 -44 hlineto
            -48 -23 -26 -37 -35 8 -45 1 -3 hvcurveto
            -4 hlineto
            -4 22 -9 35 -10 33 -13 41 rcurveline
            -90 hlineto
            35 -62 29 -52 21 -32 34 -44 rlinecurve
            -5 hlineto
            -33 44 -30 34 -61 64 -47 48 rcurveline
            return
          </CharString>
          <CharString index="251">
            626 rmoveto
            -453 -70 453 hlineto
            -299 -74 rmoveto
            -90 -315 hlineto
            289 callsubr
            119 70 -209 -304 302 callgsubr
            endchar
          </CharString>
          <CharString index="252">
            rmoveto
            22 4 7 24 vhcurveto
            24 hlineto
            23 5 -7 -22 hvcurveto
            -146 vlineto
            -22 -5 -7 -23 vhcurveto
            -24 hlineto
            -24 -4 7 22 hvcurveto
            return
          </CharString>
          <CharString index="253">
            40 4 156 callgsubr
            return
          </CharString>
          <CharString index="254">
            275 callgsubr
            -91 294 callgsubr
            return
          </CharString>
          <CharString index="255">
            87 vlineto
            192 callgsubr
            return
          </CharString>
          <CharString index="256">
            27 9 8 27 vhcurveto
            31 70 -43 hlineto
            -49 -24 -26 -37 -31 9 -56 1 -13 hvcurveto
            -3 hlineto
            -4 22 -10 35 -10 33 -12 41 rcurveline
            -91 hlineto
            35 -62 29 -52 22 -32 33 -44 rlinecurve
            -4 hlineto
            -34 44 -29 34 -62 64 -47 48 rcurveline
            return
          </CharString>
          <CharString index="257">
            rmoveto
            -112 vlineto
            -50 8 -35 0 vhcurveto
            0 -21 47 -30 42 vhcurveto
            -75 108 rlineto
            733 70 rmoveto
            -918 -70 72 -224 hlineto
            -30 24 callgsubr
            -144 vlineto
            -61 29 -28 67 vhcurveto
            return
          </CharString>
          <CharString index="258">
            -28 72 callgsubr
            28 -31 return
          </CharString>
          <CharString index="259">
            305 callsubr
            -153 hlineto
            263 callsubr
            254 vlineto
            26 5 -6 -26 hvcurveto
            return
          </CharString>
          <CharString index="260">
            183 callgsubr
            109 callgsubr
            return
          </CharString>
          <CharString index="261">
            -84 callsubr
            85 return
          </CharString>
          <CharString index="262">
            -376 hlineto
            -17 callgsubr
            return
          </CharString>
          <CharString index="263">
            -219 134 hmoveto
            488 -90 -488 vlineto
            return
          </CharString>
          <CharString index="264">
            43 -9 57 0 vhcurveto
            0 19 -43 28 -40 vhcurveto
            return
          </CharString>
          <CharString index="265">
            -64 -35 callsubr
            return
          </CharString>
          <CharString index="266">
            -43 -19 -19 -34 hvcurveto
            -19 -3 vlineto
            25 -17 18 -40 vhcurveto
            -267 183 callsubr
            6 5 26 vhcurveto
            215 364 callsubr
            70 -72 return
          </CharString>
          <CharString index="267">
            556 71 vlineto
            endchar
          </CharString>
          <CharString index="268">
            268 callsubr
            207 97 callgsubr
            94 344 callgsubr
            82 callgsubr
          </CharString>
          <CharString index="269">
            304 vlineto
            62 -29 27 -67 vhcurveto
            -7 74 hlineto
            endchar
          </CharString>
          <CharString index="270">
            -113 vlineto
            -24 return
          </CharString>
          <CharString index="271">
            -43 -19 -19 -34 hvcurveto
            -19 -3 vlineto
            25 -17 18 -40 vhcurveto
            -98 183 callsubr
            5 5 27 vhcurveto
            46 364 callsubr
            70 -72 return
          </CharString>
          <CharString index="272">
            hlineto
            -135 193 rlineto
            -108 hlineto
            66 -91 32 -43 28 -35 24 -24 rlinecurve
            return
          </CharString>
          <CharString index="273">
            -187 60 626 rmoveto
            -626 90 626 vlineto
            return
          </CharString>
          <CharString index="274">
            188 callgsubr
            16 24 -7 33 hhcurveto
            return
          </CharString>
          <CharString index="275">
            -95 callsubr
            389 return
          </CharString>
          <CharString index="276">
            92 177 callsubr
            return
          </CharString>
          <CharString index="277">
            -397 -373 819 rmoveto
            135 -125 55 -50 29 -19 12 -7 rlinecurve
            87 hlineto
            -41 201 296 callgsubr
            return
          </CharString>
          <CharString index="278">
            218 vlineto
            135 callgsubr
            450 206 callsubr
            endchar
          </CharString>
          <CharString index="279">
            -5 callgsubr
            361 callgsubr
            return
          </CharString>
          <CharString index="280">
            138 callgsubr
            -366 hlineto
            -11 callsubr
            return
          </CharString>
          <CharString index="281">
            -275 -88 callsubr
            205 return
          </CharString>
          <CharString index="282">
            15 5 8 12 vhcurveto
            24 30 -38 47 hhcurveto
            return
          </CharString>
          <CharString index="283">
            432 rmoveto
            -106 124 106 hlineto
            -196 return
          </CharString>
          <CharString index="284">
            hlineto
            65 -52 callsubr
            return
          </CharString>
          <CharString index="285">
            121 rlineto
            75 68 return
          </CharString>
          <CharString index="286">
            337 callgsubr
            55 hlineto
            17 12 3 7 8 hvcurveto
            -129 90 308 -90 -87 vlineto
            322 callsubr
            -37 -11 callgsubr
            188 -58 callgsubr
            endchar
          </CharString>
          <CharString index="287">
            -85 callsubr
            129 26 251 callgsubr
            -7 7 vhcurveto
            95 hlineto
            return
          </CharString>
          <CharString index="288">
            hlineto
            194 callgsubr
            return
          </CharString>
          <CharString index="289">
            rmoveto
            -17 callgsubr
            return
          </CharString>
          <CharString index="290">
            293 callsubr
            -68 90 51 vlineto
            27 return
          </CharString>
          <CharString index="291">
            92 vlineto
            192 callgsubr
            return
          </CharString>
          <CharString index="292">
            251 callsubr
            -23 vhcurveto
            return
          </CharString>
          <CharString index="293">
            246 -120 -92 return
          </CharString>
          <CharString index="294">
            -27 -28 -57 hvcurveto
            return
          </CharString>
          <CharString index="295">
            437 callsubr
            -7 239 callgsubr
          </CharString>
          <CharString index="296">
            33 callgsubr
            130 vlineto
            return
          </CharString>
          <CharString index="297">
            -412 -10 callsubr
            return
          </CharString>
          <CharString index="298">
            -556 89 -60 callgsubr
            return
          </CharString>
          <CharString index="299">
            -70 219 hlineto
            173 callsubr
            185 68 -158 276 callgsubr
            183 return
          </CharString>
          <CharString index="300">
            109 vlineto
            62 -29 27 -68 -19 callsubr
            endchar
          </CharString>
          <CharString index="301">
            -21 callsubr
            -187 vlineto
            -61 -27 callgsubr
            54 hlineto
            20 13 5 10 7 hvcurveto
            return
          </CharString>
          <CharString index="302">
            21 callgsubr
            -283 183 callsubr
            4 5 28 vhcurveto
            215 364 callsubr
            return
          </CharString>
          <CharString index="303">
            hlineto
            -95 callgsubr
            -81 callsubr
            endchar
          </CharString>
          <CharString index="304">
            rmoveto
            -179 32 vlineto
            66 130 rlineto
            49 vlineto
            endchar
          </CharString>
          <CharString index="305">
            299 callgsubr
            -32 65 vhcurveto
            296 callsubr
            return
          </CharString>
          <CharString index="306">
            126 84 callgsubr
            -218 -36 callsubr
            -57 78 -91 -221 91 75 84 348 callsubr
            233 vlineto
            13 -3 8 -5 5 vhcurveto
            return
          </CharString>
          <CharString index="307">
            hlineto
            211 callgsubr
            return
          </CharString>
          <CharString index="308">
            106 callsubr
            107 166 rlineto
            -114 90 return
          </CharString>
          <CharString index="309">
            rmoveto
            -24 -5 -85 callsubr
            204 vlineto
            5 -7 17 -38 31 -56 return
          </CharString>
          <CharString index="310">
            6 callsubr
            60 hlineto
            -1 -5 0 -5 return
          </CharString>
          <CharString index="311">
            hlineto
            -64 72 callsubr
            return
          </CharString>
          <CharString index="312">
            -87 callsubr
            38 return
          </CharString>
          <CharString index="313">
            vlineto
            223 callsubr
            return
          </CharString>
          <CharString index="314">
            hlineto
            -24 -6 5 23 hvcurveto
            return
          </CharString>
          <CharString index="315">
            -25 17 callgsubr
            return
          </CharString>
          <CharString index="316">
            -69 callgsubr
            149 callgsubr
            return
          </CharString>
          <CharString index="317">
            321 callgsubr
            111 125 callsubr
            49 vlineto
            57 -27 28 -64 vhcurveto
            -101 -74 callgsubr
            18 365 callsubr
          </CharString>
          <CharString index="318">
            -42 callsubr
            158 27 vlineto
            return
          </CharString>
          <CharString index="319">
            -374 225 callgsubr
            return
          </CharString>
          <CharString index="320">
            rmoveto
            -72 callgsubr
            -138 -86 callsubr
            return
          </CharString>
          <CharString index="321">
            -113 133 callsubr
            return
          </CharString>
          <CharString index="322">
            252 callgsubr
            -62 vhcurveto
            endchar
          </CharString>
          <CharString index="323">
            -376 vlineto
            -24 -8 -8 return
          </CharString>
          <CharString index="324">
            -33 callgsubr
            -139 -82 callsubr
            158 26 vlineto
            65 386 callsubr
            return
          </CharString>
          <CharString index="325">
            196 634 -196 hlineto
            236 -185 rmoveto
            196 185 -196 hlineto
            return
          </CharString>
          <CharString index="326">
            144 72 70 -417 -70 255 -74 -91 return
          </CharString>
          <CharString index="327">
            -83 hlineto
            -3 callsubr
            return
          </CharString>
          <CharString index="328">
            27 vlineto
            64 18 callgsubr
            return
          </CharString>
          <CharString index="329">
            -62 callgsubr
            29 return
          </CharString>
          <CharString index="330">
            57 337 callsubr
            return
          </CharString>
          <CharString index="331">
            hlineto
            23 6 -5 return
          </CharString>
          <CharString index="332">
            341 callsubr
            -189 208 callgsubr
            19 334 callgsubr
            return
          </CharString>
          <CharString index="333">
            vhcurveto
            74 hlineto
            67 return
          </CharString>
          <CharString index="334">
            158 73 348 callgsubr
            285 vlineto
            23 6 6 373 callsubr
            -273 332 callgsubr
            return
          </CharString>
          <CharString index="335">
            192 callgsubr
            -156 vlineto
            -62 29 -27 67 vhcurveto
            89 238 callsubr
          </CharString>
          <CharString index="336">
            -83 hlineto
            -70 callsubr
            return
          </CharString>
          <CharString index="337">
            vlineto
            -102 callgsubr
            return
          </CharString>
          <CharString index="338">
            vlineto
            166 callgsubr
            return
          </CharString>
          <CharString index="339">
            vlineto
            -24 -6 -5 -22 307 callgsubr
            return
          </CharString>
          <CharString index="340">
            -12 callgsubr
            -6 -5 return
          </CharString>
          <CharString index="341">
            vlineto
            -23 17 callgsubr
            return
          </CharString>
          <CharString index="342">
            427 callgsubr
            -24 return
          </CharString>
          <CharString index="343">
            -23 322 291 callgsubr
            77 70 -422 -70 255 -74 -91 vlineto
            -30 callgsubr
            -230 vlineto
            -45 16 -27 35 -11 vhcurveto
            return
          </CharString>
          <CharString index="344">
            -68 callgsubr
            105 -362 113 callsubr
          </CharString>
          <CharString index="345">
            304 callsubr
            106 -362 -100 callgsubr
          </CharString>
          <CharString index="346">
            vlineto
            62 140 callsubr
            -63 -23 callgsubr
            84 vlineto
            endchar
          </CharString>
          <CharString index="347">
            432 295 callsubr
            -196 185 callsubr
            -45 -79 callsubr
            155 -98 callsubr
            return
          </CharString>
          <CharString index="348">
            4 callsubr
            125 -90 -113 25 callgsubr
            return
          </CharString>
          <CharString index="349">
            235 178 33 callgsubr
            return
          </CharString>
          <CharString index="350">
            267 callgsubr
            38 hlineto
            return
          </CharString>
          <CharString index="351">
            182 callsubr
            378 99 vlineto
            return
          </CharString>
          <CharString index="352">
            vlineto
            318 callgsubr
            return
          </CharString>
          <CharString index="353">
            -79 callgsubr
            29 return
          </CharString>
          <CharString index="354">
            -158 rlineto
            98 hlineto
            return
          </CharString>
          <CharString index="355">
            -89 callsubr
            148 callsubr
            return
          </CharString>
          <CharString index="356">
            -229 rmoveto
            33 hlineto
            66 130 rlineto
            49 -99 vlineto
            return
          </CharString>
          <CharString index="357">
            -24 -8 -8 -24 305 callgsubr
            return
          </CharString>
          <CharString index="358">
            403 callgsubr
            -6 -5 return
          </CharString>
          <CharString index="359">
            201 callsubr
            380 125 callgsubr
            return
          </CharString>
          <CharString index="360">
            -163 266 callsubr
          </CharString>
          <CharString index="361" raw="1">
            31fc0206 800ae6f7 450a0b 
          </CharString>
          <CharString index="362">
            414 rmoveto
            142 return
          </CharString>
          <CharString index="363">
            3 -5 -28 hvcurveto
            return
          </CharString>
          <CharString index="364">
            -376 hlineto
            23 callgsubr
            -64 return
          </CharString>
          <CharString index="365">
            433 callsubr
            282 vlineto
            24 5 5 24 148 callgsubr
          </CharString>
          <CharString index="366">
            53 callgsubr
            endchar
          </CharString>
          <CharString index="367">
            hlineto
            21 13 5 11 7 hvcurveto
            -126 87 -101 callgsubr
          </CharString>
          <CharString index="368">
            -116 -86 callsubr
            return
          </CharString>
          <CharString index="369">
            273 callgsubr
            hlineto
            return
          </CharString>
          <CharString index="370">
            -17 -11 -3 -7 -8 hvcurveto
            114 return
          </CharString>
          <CharString index="371">
            313 callgsubr
            23 6 -5 -25 hvcurveto
            return
          </CharString>
          <CharString index="372">
            -70 267 -74 -103 -21 callsubr
            109 callgsubr
            return
          </CharString>
          <CharString index="373">
            63 callsubr
            endchar
          </CharString>
          <CharString index="374">
            -88 callsubr
            215 return
          </CharString>
          <CharString index="375">
            vlineto
            -32 callsubr
            return
          </CharString>
          <CharString index="376">
            391 callgsubr
            -198 return
          </CharString>
          <CharString index="377">
            hlineto
            192 callgsubr
            100 callgsubr
            return
          </CharString>
          <CharString index="378">
            246 626 rmoveto
            -266 -70 266 hlineto
            return
          </CharString>
          <CharString index="379">
            26 callsubr
            -6 7 vhcurveto
            return
          </CharString>
          <CharString index="380">
            hlineto
            -17 45 callgsubr
            return
          </CharString>
          <CharString index="381">
            -31 -22 -12 -27 -9 hvcurveto
            return
          </CharString>
          <CharString index="382">
            vlineto
            139 callsubr
            return
          </CharString>
          <CharString index="383">
            vhcurveto
            -41 hlineto
            -24 -6 5 return
          </CharString>
          <CharString index="384">
            26 6 -6 -26 hvcurveto
            return
          </CharString>
          <CharString index="385">
            18 callsubr
            -23 -6 5 24 hvcurveto
            181 return
          </CharString>
          <CharString index="386">
            -31 rmoveto
            -90 -488 90 337 hlineto
            50 20 24 43 vhcurveto
            36 78 -20 hlineto
            -43 -26 -29 -32 -10 hvcurveto
            endchar
          </CharString>
          <CharString index="387">
            hlineto
            15 10 2 6 365 callgsubr
          </CharString>
          <CharString index="388">
            344 callsubr
            113 callsubr
          </CharString>
          <CharString index="389">
            vlineto
            174 callgsubr
            return
          </CharString>
          <CharString index="390">
            178 rmoveto
            208 callsubr
            -26 -79 callsubr
            205 262 callsubr
            return
          </CharString>
          <CharString index="391">
            369 callsubr
            132 vlineto
            24 408 callgsubr
            return
          </CharString>
          <CharString index="392">
            rmoveto
            -92 hlineto
            -82 -345 -87 345 rlineto
            -92 hlineto
            134 -428 rlineto
            -198 91 198 vlineto
            endchar
          </CharString>
          <CharString index="393">
            hlineto
            -39 callgsubr
            171 105 -362 113 callsubr
          </CharString>
          <CharString index="394">
            410 callgsubr
            130 -75 callgsubr
            return
          </CharString>
          <CharString index="395">
            hlineto
            51 callgsubr
            return
          </CharString>
          <CharString index="396">
            -95 callsubr
            245 return
          </CharString>
          <CharString index="397">
            -10 callsubr
            hlineto
            endchar
          </CharString>
          <CharString index="398">
            -389 hlineto
            -61 return
          </CharString>
          <CharString index="399">
            99 callsubr
            81 394 callgsubr
            return
          </CharString>
          <CharString index="400">
            hlineto
            -57 -31 -26 -59 hvcurveto
            return
          </CharString>
          <CharString index="401">
            -230 vlineto
            -61 30 -28 return
          </CharString>
          <CharString index="402">
            rmoveto
            -105 124 105 hlineto
            return
          </CharString>
          <CharString index="403">
            -68 -212 rmoveto
            -77 callgsubr
            171 129 callgsubr
            18 -47 31 -62 vhcurveto
            return
          </CharString>
          <CharString index="404">
            368 callgsubr
            252 -75 callgsubr
            return
          </CharString>
          <CharString index="405">
            -103 rmoveto
            362 callsubr
            -172 vlineto
            endchar
          </CharString>
          <CharString index="406">
            vlineto
            24 6 5 373 callsubr
            return
          </CharString>
          <CharString index="407">
            vlineto
            250 callsubr
            return
          </CharString>
          <CharString index="408">
            hlineto
            -65 112 callgsubr
            return
          </CharString>
          <CharString index="409">
            hlineto
            335 callgsubr
            return
          </CharString>
          <CharString index="410">
            -5 -24 hvcurveto
            -78 91 92 vlineto
            57 return
          </CharString>
          <CharString index="411">
            319 callsubr
            171 return
          </CharString>
          <CharString index="412">
            rmoveto
            379 callgsubr
            104 return
          </CharString>
          <CharString index="413">
            97 callgsubr
            72 hlineto
            return
          </CharString>
          <CharString index="414">
            -58 callgsubr
            31 hlineto
            return
          </CharString>
          <CharString index="415">
            -99 216 callgsubr
            return
          </CharString>
          <CharString index="416">
            102 34 callsubr
            return
          </CharString>
          <CharString index="417">
            57 -27 30 -65 vhcurveto
            return
          </CharString>
          <CharString index="418">
            -27 -27 -57 hvcurveto
            return
          </CharString>
          <CharString index="419">
            34 callsubr
            -41 276 callgsubr
            79 vlineto
            23 408 callgsubr
            return
          </CharString>
          <CharString index="420">
            -36 callgsubr
            -187 vlineto
            -61 -27 callgsubr
            return
          </CharString>
          <CharString index="421">
            392 callsubr
            79 306 callsubr
            return
          </CharString>
          <CharString index="422">
            vlineto
            336 callsubr
            -53 74 callsubr
            23 vhcurveto
            return
          </CharString>
          <CharString index="423">
            -61 30 -28 60 vhcurveto
            63 281 callsubr
          </CharString>
          <CharString index="424">
            -6 callgsubr
            -29 -68 57 177 callsubr
            return
          </CharString>
          <CharString index="425">
            -15 -14 -25 -3 hvcurveto
            -2 hlineto
            25 -3 return
          </CharString>
          <CharString index="426">
            hlineto
            67 29 27 62 hvcurveto
            return
          </CharString>
          <CharString index="427">
            -106 247 callsubr
            return
          </CharString>
          <CharString index="428">
            vlineto
            57 -29 27 -61 vhcurveto
            return
          </CharString>
          <CharString index="429">
            -25 403 callsubr
            return
          </CharString>
          <CharString index="430">
            245 callsubr
            97 hlineto
            108 425 callgsubr
            90 return
          </CharString>
          <CharString index="431">
            -97 hlineto
            -129 -314 127 -312 rlineto
            98 hlineto
            -131 312 rlineto
            endchar
          </CharString>
          <CharString index="432">
            -124 -99 hlineto
            return
          </CharString>
          <CharString index="433">
            811 rmoveto
            363 callgsubr
            return
          </CharString>
          <CharString index="434">
            vlineto
            341 callgsubr
            return
          </CharString>
          <CharString index="435">
            347 626 rmoveto
            -367 -70 367 hlineto
            return
          </CharString>
          <CharString index="436">
            367 626 rmoveto
            -387 -70 387 hlineto
            return
          </CharString>
          <CharString index="437">
            90 380 125 callgsubr
            38 hlineto
            return
          </CharString>
          <CharString index="438">
            5 24 vhcurveto
            29 70 -57 hlineto
            return
          </CharString>
          <CharString index="439">
            40 vlineto
            256 callgsubr
            return
          </CharString>
          <CharString index="440">
            -38 19 callsubr
            return
          </CharString>
          <CharString index="441">
            87 381 callsubr
            return
          </CharString>
          <CharString index="442">
            hlineto
            380 callsubr
            return
          </CharString>
          <CharString index="443">
            -25 -8 -9 -26 vhcurveto
            return
          </CharString>
          <CharString index="444">
            -29 31 -64 vhcurveto
            return
          </CharString>
          <CharString index="445">
            vlineto
            -31 15 -15 return
          </CharString>
          <CharString index="446">
            rmoveto
            165 71 70 -626 -70 464 -95 -91 vlineto
            158 callsubr
            return
          </CharString>
          <CharString index="447">
            234 callgsubr
            -60 311 callsubr
            -58 60 43 vlineto
            24 return
          </CharString>
          <CharString index="448">
            309 callgsubr
            -219 -70 72 335 callsubr
            return
          </CharString>
          <CharString index="449">
            rmoveto
            -100 hlineto
            105 -132 rlineto
            77 hlineto
            endchar
          </CharString>
          <CharString index="450">
            6 15 9 hvcurveto
            -14 16 24 -7 return
          </CharString>
          <CharString index="451">
            223 callgsubr
            -88 return
          </CharString>
          <CharString index="452">
            vlineto
            24 8 8 24 vhcurveto
            return
          </CharString>
          <CharString index="453">
            -176 rmoveto
            -26 -6 -6 return
          </CharString>
          <CharString index="454">
            vlineto
            23 5 6 24 vhcurveto
            return
          </CharString>
          <CharString index="455">
            hlineto
            277 callgsubr
            return
          </CharString>
          <CharString index="456">
            66 28 28 55 hvcurveto
            56 return
          </CharString>
          <CharString index="457">
            148 202 callsubr
            return
          </CharString>
          <CharString index="458">
            vhcurveto
            109 callsubr
            return
          </CharString>
          <CharString index="459">
            819 rmoveto
            -108 hlineto
            66 -91 37 -50 32 -39 27 -24 rlinecurve
            89 hlineto
            return
          </CharString>
          <CharString index="460">
            vlineto
            -61 140 callgsubr
            194 66 -171 -82 callsubr
            return
          </CharString>
          <CharString index="461">
            65 callgsubr
            hlineto
            endchar
          </CharString>
          <CharString index="462">
            -70 72 184 callgsubr
            return
          </CharString>
          <CharString index="463">
            -46 callgsubr
            192 86 -192 vlineto
            -61 return
          </CharString>
          <CharString index="464">
            -62 callgsubr
            71 hlineto
            -367 return
          </CharString>
          <CharString index="465">
            101 123 -101 hlineto
            return
          </CharString>
          <CharString index="466">
            -6 5 24 hvcurveto
            return
          </CharString>
          <CharString index="467">
            390 callsubr
            57 hlineto
            return
          </CharString>
          <CharString index="468">
            178 rmoveto
            -72 callgsubr
            -138 -79 callsubr
            return
          </CharString>
          <CharString index="469">
            72 -251 -72 158 vlineto
            -169 -344 rlineto
            -72 264 72 return
          </CharString>
          <CharString index="470">
            vlineto
            -61 29 -28 67 vhcurveto
            55 hlineto
            18 -63 callgsubr
            -89 90 return
          </CharString>
          <CharString index="471">
            295 callgsubr
            -94 -72 -70 72 -43 callgsubr
            return
          </CharString>
          <CharString index="472">
            -62 callgsubr
            endchar
          </CharString>
          <CharString index="473">
            -5 -27 hvcurveto
            -51 return
          </CharString>
          <CharString index="474">
            338 callsubr
            22 callsubr
            -31 vvcurveto
            return
          </CharString>
          <CharString index="475">
            112 callgsubr
            23 vhcurveto
            34 hlineto
            return
          </CharString>
          <CharString index="476">
            251 callsubr
            -24 vhcurveto
            -41 -82 callsubr
            return
          </CharString>
          <CharString index="477">
            -91 -50 vlineto
            -21 1 callgsubr
            -79 -82 callsubr
            return
          </CharString>
          <CharString index="478">
            hlineto
            18 -80 callsubr
          </CharString>
          <CharString index="479">
            234 callgsubr
            -61 return
          </CharString>
          <CharString index="480">
            24 vhcurveto
            35 hlineto
            23 10 -9 -26 hvcurveto
            return
          </CharString>
          <CharString index="481">
            377 callsubr
            -57 hvcurveto
            return
          </CharString>
          <CharString index="482">
            -36 -82 callsubr
            return
          </CharString>
          <CharString index="483">
            -202 383 callsubr
            return
          </CharString>
          <CharString index="484">
            325 callsubr
            -65 -27 -28 return
          </CharString>
          <CharString index="485">
            27 vlineto
            64 26 29 58 hvcurveto
            return
          </CharString>
          <CharString index="486">
            hlineto
            158 callsubr
            return
          </CharString>
          <CharString index="487">
            -6 -6 -4 -11 -15 vvcurveto
            return
          </CharString>
          <CharString index="488">
            vlineto
            425 callsubr
            return
          </CharString>
          <CharString index="489">
            -105 -158 rlineto
            97 hlineto
            return
          </CharString>
          <CharString index="490">
            214 626 rmoveto
            return
          </CharString>
          <CharString index="491">
            vhcurveto
            35 11 callsubr
            return
          </CharString>
          <CharString index="492">
            -198 rlineto
            -11 return
          </CharString>
          <CharString index="493">
            18 callgsubr
            102 95 callsubr
            return
          </CharString>
          <CharString index="494">
            -210 hlineto
            -89 6 -40 0 vhcurveto
            0 -23 43 -29 45 vhcurveto
            return
          </CharString>
          <CharString index="495">
            205 callgsubr
            -65 -27 -27 -58 hvcurveto
            return
          </CharString>
          <CharString index="496">
            vlineto
            -30 callgsubr
            -126 vlineto
            -61 29 -28 67 vhcurveto
            return
          </CharString>
          <CharString index="497">
            -79 callsubr
            205 -62 callgsubr
            return
          </CharString>
          <CharString index="498">
            vhcurveto
            63 344 callsubr
            91 556 return
          </CharString>
          <CharString index="499">
            rmoveto
            404 callgsubr
            return
          </CharString>
          <CharString index="500">
            -11 callgsubr
            36 -75 callgsubr
            return
          </CharString>
          <CharString index="501">
            vlineto
            -24 -6 -5 -22 34 callgsubr
            return
          </CharString>
          <CharString index="502">
            vlineto
            337 callgsubr
            88 hlineto
            67 30 27 62 hvcurveto
            return
          </CharString>
          <CharString index="503">
            vlineto
            -27 -10 -9 -27 vhcurveto
            -31 -86 callsubr
            return
          </CharString>
          <CharString index="504">
            -82 48 259 rmoveto
            218 70 -218 hlineto
            endchar
          </CharString>
          <CharString index="505">
            -75 callgsubr
            75 hlineto
            return
          </CharString>
          <CharString index="506">
            246 callsubr
            68 return
          </CharString>
          <CharString index="507">
            478 rmoveto
            -823 -70 661 return
          </CharString>
          <CharString index="508">
            -351 -21 callsubr
            return
          </CharString>
          <CharString index="509">
            -60 callgsubr
            70 vlineto
            endchar
          </CharString>
          <CharString index="510">
            -8 -7 -24 vhcurveto
            return
          </CharString>
          <CharString index="511">
            6 -5 -24 hvcurveto
            -166 -68 callsubr
            return
          </CharString>
          <CharString index="512">
            rmoveto
            220 callsubr
            return
          </CharString>
          <CharString index="513">
            -130 161 -90 -161 -130 -71 130 return
          </CharString>
          <CharString index="514">
            -75 callgsubr
            endchar
          </CharString>
          <CharString index="515">
            159 callgsubr
            25 vhcurveto
            return
          </CharString>
          <CharString index="516">
            vlineto
            208 callsubr
            return
          </CharString>
          <CharString index="517">
            rmoveto
            -58 callsubr
            return
          </CharString>
          <CharString index="518">
            669 -90 -669 vlineto
            return
          </CharString>
          <CharString index="519">
            vlineto
            24 8 7 24 vhcurveto
            return
          </CharString>
          <CharString index="520">
            -9 hlineto
            -78 146 rlineto
            return
          </CharString>
          <CharString index="521">
            29 -31 64 vhcurveto
            return
          </CharString>
          <CharString index="522">
            21 -13 hvcurveto
            -24 40 rlineto
            -107 hlineto
            36 -61 rlineto
            return
          </CharString>
          <CharString index="523">
            372 callgsubr
            -89 90 return
          </CharString>
          <CharString index="524">
            -70 267 -74 -103 vlineto
            -30 callgsubr
            return
          </CharString>
          <CharString index="525">
            vlineto
            -30 callgsubr
            -54 229 rmoveto
            -70 return
          </CharString>
          <CharString index="526">
            482 rmoveto
            343 callgsubr
            return
          </CharString>
          <CharString index="527">
            15 -16 22 callsubr
            return
          </CharString>
          <CharString index="528">
            -35 callsubr
            -189 vlineto
            return
          </CharString>
          <CharString index="529">
            34 callsubr
            -99 return
          </CharString>
          <CharString index="530">
            65 252 callgsubr
            -65 vhcurveto
            return
          </CharString>
          <CharString index="531" raw="1">
            4e600a0b   
          </CharString>
          <CharString index="532">
            68 32 27 59 hvcurveto
            return
          </CharString>
          <CharString index="533">
            -91 vlineto
            -24 -8 -8 return
          </CharString>
          <CharString index="534">
            556 rmoveto
            70 return
          </CharString>
          <CharString index="535">
            -70 247 -74 return
          </CharString>
          <CharString index="536">
            -354 rmoveto
            208 callsubr
            -45 hlineto
            return
          </CharString>
          <CharString index="537">
            25 26 -18 19 -26 -25 -19 -19 -26 vhcurveto
            return
          </CharString>
          <CharString index="538">
            rlineto
            375 callgsubr
            return
          </CharString>
          <CharString index="539">
            214 657 rmoveto
            -86 -688 86 hlineto
            return
          </CharString>
          <CharString index="540">
            vhcurveto
            57 73 -29 410 callgsubr
            return
          </CharString>
          <CharString index="541">
            rmoveto
            -94 101 94 vlineto
            endchar
          </CharString>
          <CharString index="542">
            111 hlineto
            65 return
          </CharString>
          <CharString index="543">
            hlineto
            24 8 -7 return
          </CharString>
          <CharString index="544">
            hvcurveto
            -13 15 22 return
          </CharString>
        <CharString name=".notdef">
          354 176 hmoveto
          399 701 -399 hlineto
          59 -55 rmoveto
          281 -591 -281 hlineto
          endchar
        </CharString>
        <CharString name="A">
          -12 136 218 rmoveto
          -57 callgsubr
        </CharString>
        <CharString name="AE">
          182 181 221 rmoveto
          105 293 rlineto
          -293 vlineto
          89 -148 rmoveto
          214 144 73 -144 193 174 73 -306 vlineto
          -232 -626 rlineto
          91 hlineto
          53 149 rlineto
          131 -149 270 73 hlineto
          endchar
        </CharString>
        <CharString name="Aacute">
          -12 333 789 56 callsubr
          -92 -439 rmoveto
          -57 callgsubr
        </CharString>
        <CharString name="Abreve">
          -12 239 657 rmoveto
          65 29 31 58 hvcurveto
          43 -84 78 callsubr
          -2 -439 rmoveto
          -57 callgsubr
        </CharString>
        <CharString name="Acircumflex">
          -12 188 738 47 callgsubr
          -439 vmoveto
          -57 callgsubr
        </CharString>
        <CharString name="Adieresis">
          -12 334 751 146 callgsubr
          -9 -439 rmoveto
          -57 callgsubr
        </CharString>
        <CharString name="Agrave">
          -12 220 657 128 callgsubr
          -7 -439 rmoveto
          -57 callgsubr
        </CharString>
        <CharString name="Amacron">
          -12 322 726 247 callgsubr
          -186 -440 rmoveto
          -57 callgsubr
        </CharString>
        <CharString name="Aogonek">
          -12 136 218 rmoveto
          52 330 57 -330 rlineto
          65 -380 rmoveto
          80 callsubr
          97 -2 hlineto
          -117 615 rlineto
          -131 hlineto
          -111 -626 rlineto
          90 hlineto
          23 145 rlineto
          132 hlineto
          25 -145 rlineto
          20 -23 -8 hlineto
          354 callsubr
        </CharString>
        <CharString name="Aring">
          -12 146 740 -6 callsubr
          -20 -440 rmoveto
          -57 callgsubr
        </CharString>
        <CharString name="Atilde">
          -12 123 673 rmoveto
          175 callsubr
          -9 callgsubr
          vlineto
          13 -440 rmoveto
          -57 callgsubr
        </CharString>
        <CharString name="B">
          12 52 626 rmoveto
          -626 217 vlineto
          129 callsubr
          171 vlineto
          33 -13 18 -27 7 vhcurveto
          27 6 13 22 34 vvcurveto
          159 vlineto
          57 -29 31 -65 vhcurveto
          3 -526 34 callsubr
          -100 212 100 -92 callsubr
          129 vmoveto
          -30 callsubr
          -100 201 100 -92 callsubr
          endchar
        </CharString>
        <CharString name="C">
          -20 340 430 -24 callsubr
        </CharString>
        <CharString name="CR">
          -252 endchar
        </CharString>
        <CharString name="Cacute">
          -20 336 789 56 callsubr
          109 -227 -24 callsubr
        </CharString>
        <CharString name="Ccaron">
          -20 244 657 -2 callgsubr
          197 -227 -24 callsubr
        </CharString>
        <CharString name="Ccedilla">
          -20 153 219 callgsubr
          187 480 -24 callsubr
        </CharString>
        <CharString name="D">
          15 274 100 196 callgsubr
        </CharString>
        <CharString name="Dcaron">
          15 254 657 -2 callgsubr
          121 -557 196 callgsubr
        </CharString>
        <CharString name="Dcroat">
          17 274 102 422 callsubr
          207 75 71 -75 202 99 -92 callsubr
          -220 102 rmoveto
          -275 -51 -71 51 -280 171 callsubr
        </CharString>
        <CharString name="E">
          -54 143 73 rmoveto
          214 53 callsubr
          vlineto
          endchar
        </CharString>
        <CharString name="Eacute">
          -54 325 789 56 callsubr
          -77 -370 rmoveto
          53 callsubr
          -181 hlineto
          endchar
        </CharString>
        <CharString name="Ecaron">
          -54 235 657 -2 callgsubr
          9 -370 rmoveto
          53 callsubr
          -181 hlineto
          endchar
        </CharString>
        <CharString name="Ecircumflex">
          -54 186 738 47 callgsubr
          9 -370 rmoveto
          53 callsubr
          -181 hlineto
          endchar
        </CharString>
        <CharString name="Edieresis">
          -43 139 751 rmoveto
          -102 -94 102 hlineto
          4 -370 rmoveto
          53 callsubr
          -181 hlineto
          84 678 434 callsubr
        </CharString>
        <CharString name="Edotaccent">
          -54 246 753 rmoveto
          -107 -96 107 hlineto
          -103 -584 rmoveto
          214 53 callsubr
          vlineto
          endchar
        </CharString>
        <CharString name="Egrave">
          -54 223 657 128 callgsubr
          -3 -584 rmoveto
          214 53 callsubr
          vlineto
          endchar
        </CharString>
        <CharString name="Emacron">
          -54 317 739 247 callgsubr
          -174 -598 rmoveto
          214 53 callsubr
          vlineto
          endchar
        </CharString>
        <CharString name="Eogonek">
          -54 261 -162 rmoveto
          80 callsubr
          159 -181 214 144 73 -144 193 174 73 -265 -626 201 -23 -8 hlineto
          354 callsubr
        </CharString>
        <CharString name="Eth">
          15 274 100 422 callsubr
          209 75 71 -75 204 99 -92 callsubr
          -220 100 rmoveto
          -275 -51 -71 51 -280 171 callsubr
        </CharString>
        <CharString name="Euro">
          2 362 430 rmoveto
          108 206 callsubr
          -106 hlineto
          -65 170 callgsubr
          -133 -46 -66 46 -51 -46 -67 46 -133 vlineto
          -58 29 -31 65 vhcurveto
          106 hlineto
          64 29 31 58 hvcurveto
          106 -91 -95 19 callsubr
          -51 -11 callgsubr
          122 87 67 -87 51 87 66 -87 121 -75 callgsubr
          51 -92 callsubr
          -96 vlineto
          endchar
        </CharString>
        <CharString name="F">
          -65 325 553 rmoveto
          73 -273 -626 91 276 144 71 -144 206 vlineto
          endchar
        </CharString>
        <CharString name="G">
          -15 340 443 20 callsubr
        </CharString>
        <CharString name="Gbreve">
          -15 244 657 rmoveto
          65 29 31 58 hvcurveto
          43 -84 78 callsubr
          197 -214 20 callsubr
        </CharString>
        <CharString name="H">
          20 275 626 rmoveto
          -278 -133 278 -90 -626 90 275 133 -275 90 626 vlineto
          endchar
        </CharString>
        <CharString name="I">
          166 callsubr
          endchar
        </CharString>
        <CharString name="Iacute">
          166 callsubr
          -81 31 177 callgsubr
          endchar
        </CharString>
        <CharString name="Icircumflex">
          166 callsubr
          -190 31 240 callgsubr
        </CharString>
        <CharString name="Idieresis">
          -187 -42 657 231 callgsubr
          -88 -125 rmoveto
          -626 90 626 vlineto
          endchar
        </CharString>
        <CharString name="Idotaccent">
          166 callsubr
          -99 44 rmoveto
          107 96 -107 hlineto
          endchar
        </CharString>
        <CharString name="Igrave">
          166 callsubr
          -89 163 342 callsubr
        </CharString>
        <CharString name="Imacron">
          166 callsubr
          -180 45 331 callgsubr
        </CharString>
        <CharString name="Iogonek">
          -187 87 -162 rmoveto
          80 callsubr
          712 -90 -626 19 -23 -8 hlineto
          354 callsubr
        </CharString>
        <CharString name="J">
          -63 14 206 rmoveto
          -118 134 callsubr
          85 hlineto
          135 callgsubr
          538 -91 -524 19 callsubr
          -29 -87 callsubr
          104 vlineto
          endchar
        </CharString>
        <CharString name="K">
          -13 52 hmoveto
          90 626 -90 hlineto
          322 hmoveto
          324 callsubr
        </CharString>
        <CharString name="L">
          -96 142 73 261 callgsubr
        </CharString>
        <CharString name="Lacute">
          -96 241 789 56 callsubr
          6 -584 261 callgsubr
        </CharString>
        <CharString name="Lcaron">
          -96 241 794 rmoveto
          -93 hlineto
          -53 -81 -52 81 rlineto
          -94 hlineto
          96 -132 rlineto
          101 hlineto
          -4 -589 261 callgsubr
        </CharString>
        <CharString name="Lslash">
          -88 144 73 rmoveto
          222 vlineto
          100 47 rlineto
          70 vlineto
          -100 -47 rlineto
          261 -90 -303 vlineto
          -76 -35 rlineto
          -71 vlineto
          76 36 rlineto
          -253 245 73 vlineto
          endchar
        </CharString>
        <CharString name="M">
          119 299 136 rmoveto
          86 322 rlineto
          -458 79 626 -99 vlineto
          -107 -388 -107 388 rlineto
          -99 -626 79 457 hlineto
          86 -321 rlineto
          endchar
        </CharString>
        <CharString name="N">
          13 275 626 266 callsubr
        </CharString>
        <CharString name="NULL">
          -397 endchar
        </CharString>
        <CharString name="Nacute">
          13 167 657 177 callgsubr
          26 253 callsubr
        </CharString>
        <CharString name="Ncaron">
          13 157 657 rmoveto
          101 hlineto
          95 132 rlineto
          -93 hlineto
          -53 -81 -52 81 rlineto
          -94 hlineto
          214 253 callsubr
        </CharString>
        <CharString name="Ntilde">
          13 275 626 63 callsubr
          -97 32 rmoveto
          -9 callgsubr
          15 vlineto
          175 callsubr
          endchar
        </CharString>
        <CharString name="O">
          -4 255 102 -85 callgsubr
        </CharString>
        <CharString name="OE">
          167 261 100 34 callsubr
          -58 -11 callgsubr
          426 -75 callgsubr
          58 -92 callsubr
          95 -455 rmoveto
          217 144 71 -144 196 174 71 -247 -19 vlineto
          12 -14 -19 7 -27 hhcurveto
          -77 hlineto
          -64 59 callsubr
          64 vhcurveto
          78 hlineto
          27 19 7 12 13 hvcurveto
          -19 254 71 vlineto
          endchar
        </CharString>
        <CharString name="Oacute">
          -4 334 789 56 callsubr
          26 -555 -85 callgsubr
        </CharString>
        <CharString name="Ocircumflex">
          -4 195 738 47 callgsubr
          112 -555 -85 callgsubr
        </CharString>
        <CharString name="Odieresis">
          -8 342 751 146 callgsubr
          102 -555 -85 callgsubr
        </CharString>
        <CharString name="Ograve">
          -4 225 657 128 callgsubr
          107 -555 -85 callgsubr
        </CharString>
        <CharString name="Ohungarumlaut">
          -8 288 657 119 callsubr
          86 -555 -85 callgsubr
        </CharString>
        <CharString name="Omacron">
          -4 330 726 247 callgsubr
          -75 -556 -85 callgsubr
        </CharString>
        <CharString name="Oslash">
          4 262 98 rmoveto
          -24 -6 -6 -25 vhcurveto
          -62 hlineto
          -18 -7 3 10 -3 hvcurveto
          121 324 rlineto
          -123 124 rmoveto
          23 5 6 25 vhcurveto
          62 hlineto
          19 8 -3 -12 3 hvcurveto
          -122 -325 rlineto
          213 428 rmoveto
          -53 hlineto
          -9 -24 rlineto
          3 -10 -11 1 -13 hhcurveto
          -111 hlineto
          -65 72 callsubr
          -25 6 -20 11 -14 vhcurveto
          -18 -49 rlineto
          53 hlineto
          9 23 rlineto
          -2 10 11 -1 12 hhcurveto
          435 callsubr
          28 31 57 hvcurveto
          450 vlineto
          24 -5 20 -11 14 vhcurveto
          endchar
        </CharString>
        <CharString name="Otilde">
          -4 133 673 rmoveto
          175 callsubr
          -9 callgsubr
          vlineto
          122 -556 -85 callgsubr
        </CharString>
        <CharString name="P">
          -19 260 344 rmoveto
          -24 -6 -6 -24 vhcurveto
          -88 239 88 -92 callsubr
          -208 102 rmoveto
          -626 90 242 115 vlineto
          65 28 30 58 hvcurveto
          208 411 callgsubr
          endchar
        </CharString>
        <CharString name="Q">
          -4 138 524 410 callsubr
          58 -92 callsubr
          -422 19 callsubr
          -58 -11 callgsubr
          222 -193 rmoveto
          -71 95 rlineto
          39 11 17 28 45 vvcurveto
          450 411 callgsubr
          -111 hlineto
          -65 59 callsubr
          65 vhcurveto
          57 hlineto
          66 -91 rlineto
          endchar
        </CharString>
        <CharString name="R">
          -1 142 553 50 callsubr
        </CharString>
        <CharString name="Racute">
          -1 336 789 56 callsubr
          -89 -104 50 callsubr
        </CharString>
        <CharString name="Rcaron">
          -1 247 657 -2 callgsubr
          -4 -104 50 callsubr
        </CharString>
        <CharString name="S">
          -36 232 102 61 callsubr
        </CharString>
        <CharString name="Sacute">
          -36 142 657 177 callgsubr
          8 58 callsubr
        </CharString>
        <CharString name="Scaron">
          -36 131 657 rmoveto
          101 hlineto
          95 132 rlineto
          -93 hlineto
          -53 -81 -52 81 rlineto
          -94 hlineto
          197 58 callsubr
        </CharString>
        <CharString name="T">
          -87 305 626 rmoveto
          -300 -73 105 -553 90 553 105 hlineto
          endchar
        </CharString>
        <CharString name="Tcaron">
          -87 206 657 -2 callgsubr
          200 -31 rmoveto
          -300 -73 105 -553 90 553 105 hlineto
          endchar
        </CharString>
        <CharString name="Thorn">
          -12 259 224 34 callsubr
          -86 236 86 -92 callsubr
          -116 101 rmoveto
          123 -90 -626 90 123 113 vlineto
          65 28 31 57 hvcurveto
          204 411 callgsubr
          endchar
        </CharString>
        <CharString name="U">
          0 257 626 -41 callgsubr
        </CharString>
        <CharString name="Uacute">
          0 340 789 56 callsubr
          22 -31 -41 callgsubr
        </CharString>
        <CharString name="Ucircumflex">
          0 198 738 47 callgsubr
          111 -31 -41 callgsubr
        </CharString>
        <CharString name="Udieresis">
          0 344 751 146 callgsubr
          102 -31 -41 callgsubr
        </CharString>
        <CharString name="Ugrave">
          0 237 657 128 callgsubr
          97 -31 -41 callgsubr
        </CharString>
        <CharString name="Uhungarumlaut">
          -4 286 657 119 callsubr
          90 -555 rmoveto
          -24 -5 -5 -25 vhcurveto
          -57 -87 callsubr
          524 -91 -538 207 callgsubr
          111 hlineto
          129 callsubr
          538 -91 vlineto
          endchar
        </CharString>
        <CharString name="Umacron">
          0 333 726 247 callgsubr
          -76 -32 -41 callgsubr
        </CharString>
        <CharString name="Uogonek">
          0 257 626 rmoveto
          -524 vlineto
          -24 -5 -5 -25 vhcurveto
          -57 -87 callsubr
          524 -91 -538 207 callgsubr
          28 -23 -8 hlineto
          65 callgsubr
          -81 hlineto
          80 callsubr
          86 12 hlineto
          129 callsubr
          538 vlineto
          endchar
        </CharString>
        <CharString name="Uring">
          0 155 740 -6 callsubr
          92 -32 -41 callgsubr
        </CharString>
        <CharString name="V">
          -33 266 626 rmoveto
          -85 -543 -83 543 rlineto
          -93 hlineto
          113 -626 rlineto
          128 hlineto
          113 626 rlineto
          endchar
        </CharString>
        <CharString name="W">
          212 508 626 rmoveto
          -73 -544 -81 544 rlineto
          -100 hlineto
          -81 -544 -70 544 rlineto
          -93 hlineto
          100 -626 rlineto
          125 hlineto
          69 470 70 -470 rlineto
          125 hlineto
          100 626 rlineto
          endchar
        </CharString>
        <CharString name="X">
          -24 235 320 rmoveto
          121 306 rlineto
          -98 hlineto
          -73 -225 -72 225 rlineto
          -100 hlineto
          123 -306 -132 -320 rlineto
          97 hlineto
          84 238 84 -238 rlineto
          100 hlineto
          endchar
        </CharString>
        <CharString name="Y">
          -36 357 626 285 callsubr
        </CharString>
        <CharString name="Yacute">
          -36 325 789 56 callsubr
          137 -31 285 callsubr
        </CharString>
        <CharString name="Ydieresis">
          -40 327 755 146 callgsubr
          219 -35 285 callsubr
        </CharString>
        <CharString name="Z">
          -84 305 627 rmoveto
          -286 -73 142 callgsubr
          endchar
        </CharString>
        <CharString name="Zacute">
          -84 309 789 56 callsubr
          -185 -103 rmoveto
          142 callgsubr
          73 -286 vlineto
          endchar
        </CharString>
        <CharString name="Zcaron">
          -84 213 657 -2 callgsubr
          -93 -103 rmoveto
          142 callgsubr
          73 -286 vlineto
          endchar
        </CharString>
        <CharString name="Zdotaccent">
          -84 218 753 rmoveto
          -107 -96 107 hlineto
          87 -30 rmoveto
          -286 -73 142 callgsubr
          endchar
        </CharString>
        <CharString name="a">
          -37 158 73 -66 callgsubr
          -39 90 488 vlineto
          endchar
        </CharString>
        <CharString name="aacute">
          -37 328 651 56 callsubr
          -65 -446 -29 callgsubr
          endchar
        </CharString>
        <CharString name="abreve">
          -37 158 73 -29 callgsubr
          17 163 rmoveto
          78 callsubr
          101 hlineto
          65 29 31 58 hvcurveto
          43 vlineto
          endchar
        </CharString>
        <CharString name="acircumflex">
          -37 182 600 47 callgsubr
          28 -446 -29 callgsubr
          endchar
        </CharString>
        <CharString name="acute">
          24 118 519 177 callgsubr
          endchar
        </CharString>
        <CharString name="adieresis">
          -37 135 635 rmoveto
          -102 -94 102 hlineto
          23 -468 -29 callgsubr
          -3 147 434 callsubr
        </CharString>
        <CharString name="ae">
          160 163 73 348 callgsubr
          66 vlineto
          98 39 rlineto
          -104 vlineto
          -23 -2 -10 -7 -21 hhcurveto
          199 343 rmoveto
          100 callsubr
          -104 -106 104 -75 callgsubr
          156 -201 rmoveto
          5 10 179 vlineto
          58 337 callsubr
          -78 hlineto
          327 callgsubr
          -88 90 75 -79 callgsubr
          35 hlineto
          21 10 -8 -22 2 hvcurveto
          -106 vlineto
          -188 -77 rlineto
          -114 172 callgsubr
          vlineto
          endchar
        </CharString>
        <CharString name="agrave">
          -37 245 519 128 callgsubr
          -10 -446 -66 callgsubr
          -39 90 488 vlineto
          endchar
        </CharString>
        <CharString name="amacron">
          -37 310 619 247 callgsubr
          -152 -478 -66 callgsubr
          -39 90 488 vlineto
          endchar
        </CharString>
        <CharString name="ampersand">
          64 156 71 348 callgsubr
          77 vlineto
          32 9 11 21 14 vhcurveto
          24 16 149 -179 rlineto
          -178 456 410 callsubr
          46 -92 callsubr
          -82 vlineto
          -41 -18 -17 -39 -26 vhcurveto
          -6 -5 rlineto
          -23 27 -19 25 28 vvcurveto
          363 -471 rmoveto
          -83 101 rlineto
          1 7 1 7 8 vvcurveto
          142 -73 -77 vlineto
          -115 141 23 15 rlineto
          50 32 26 32 72 vvcurveto
          93 vlineto
          57 -28 31 -64 vhcurveto
          -97 hlineto
          -65 170 callgsubr
          -96 vlineto
          -48 32 -39 36 -45 vhcurveto
          -30 -22 rlineto
          -46 -29 -15 -22 -45 vvcurveto
          -104 134 callsubr
          208 hlineto
          17 15 2 5 12 hvcurveto
          35 -42 rlineto
          endchar
        </CharString>
        <CharString name="aogonek">
          -37 158 73 -55 callgsubr
          60 -235 352 callgsubr
          -39 hlineto
          46 callsubr
          19 -23 -8 vlineto
          354 callsubr
        </CharString>
        <CharString name="apostrophemod">
          -231 288 callgsubr
          endchar
        </CharString>
        <CharString name="approxequal">
          94 326 375 rmoveto
          35 hlineto
          61 24 31 50 hvcurveto
          61 -84 -41 vlineto
          -23 -3 -12 420 callgsubr
          -29 -52 hvcurveto
          -61 83 42 vlineto
          22 5 12 24 vhcurveto
          66 12 -77 90 hhcurveto
          -175 vmoveto
          35 hlineto
          61 24 30 51 hvcurveto
          61 -84 -42 vlineto
          -23 -3 -11 420 callgsubr
          -30 -51 hvcurveto
          -61 83 42 vlineto
          21 5 13 24 vhcurveto
          66 12 -77 90 hhcurveto
          endchar
        </CharString>
        <CharString name="aring">
          -37 141 610 -6 callsubr
          7 -455 -66 callgsubr
          -39 90 488 vlineto
          endchar
        </CharString>
        <CharString name="asciicircum">
          101 187 671 rmoveto
          -132 -354 rlineto
          94 hlineto
          95 270 96 -270 rlineto
          94 hlineto
          -133 354 rlineto
          endchar
        </CharString>
        <CharString name="asciitilde">
          127 344 213 rmoveto
          34 hlineto
          61 24 31 51 hvcurveto
          65 -83 -46 vlineto
          -23 -3 -11 -24 vhcurveto
          -70 -18 81 -83 hhcurveto
          -37 hlineto
          -60 -24 -30 -51 hvcurveto
          -66 83 47 vlineto
          21 5 12 25 vhcurveto
          66 14 -81 90 hhcurveto
          endchar
        </CharString>
        <CharString name="asterisk">
          -77 305 493 rmoveto
          -24 72 -33 -11 -24 -7 -19 -9 -14 -9 rlinecurve
          4 16 3 20 25 vvcurveto
          36 -75 -36 vlineto
          -25 3 -21 4 -16 vhcurveto
          -14 9 -19 9 -24 8 -34 11 rcurveline
          -23 -71 34 -11 24 -8 20 -4 17 -1 rlinecurve
          -13 -11 -14 -15 -15 -20 -22 -29 rcurveline
          62 -44 21 28 15 21 9 19 7 15 rlinecurve
          6 -15 10 -18 14 -20 21 -30 rcurveline
          61 44 -21 29 -15 21 -14 15 -13 10 rlinecurve
          16 2 21 3 23 8 rrcurveto
          endchar
        </CharString>
        <CharString name="at">
          299 233 343 rmoveto
          -176 vlineto
          -56 28 -30 60 vhcurveto
          27 hlineto
          34 27 15 36 5 hvcurveto
          -51 145 vlineto
          62 36 callgsubr
          318 vlineto
          58 -29 30 -61 vhcurveto
          -394 hlineto
          -62 -28 -30 -58 hvcurveto
          -469 vlineto
          -57 28 -31 62 vhcurveto
          326 72 -301 hlineto
          -24 -5 6 23 hvcurveto
          442 6 callsubr
          344 hlineto
          25 5 -6 -24 hvcurveto
          -295 vlineto
          -23 -5 -6 -25 vhcurveto
          -44 280 -82 -39 hlineto
          27 -9 -22 12 -30 hhcurveto
          -27 hlineto
          -60 -28 -30 -56 hvcurveto
          85 -11 rmoveto
          23 -34 callsubr
          29 hlineto
          22 10 -8 -26 hvcurveto
          -142 vlineto
          -26 -10 -9 -22 vhcurveto
          -29 hlineto
          -24 -5 6 23 hvcurveto
          endchar
        </CharString>
        <CharString name="atilde">
          -37 113 549 rmoveto
          175 callsubr
          -9 callgsubr
          vlineto
          45 -461 -66 callgsubr
          -39 90 488 vlineto
          endchar
        </CharString>
        <CharString name="b">
          -37 232 309 callsubr
          -35 hlineto
          -23 -10 9 26 hvcurveto
          273 vlineto
          26 10 9 23 384 callsubr
          -6 -23 hvcurveto
          -36 102 rmoveto
          274 callsubr
          219 -90 -669 90 39 vlineto
          -27 9 22 -12 31 hhcurveto
          35 hlineto
          62 36 callgsubr
          312 215 callsubr
        </CharString>
        <CharString name="backslash">
          -7 31 700 rmoveto
          273 -820 rlineto
          84 hlineto
          -273 820 rlineto
          endchar
        </CharString>
        <CharString name="bar">
          -200 54 743 rmoveto
          -861 87 861 vlineto
          endchar
        </CharString>
        <CharString name="braceleft">
          -114 198 682 rmoveto
          22 8 8 24 vhcurveto
          45 71 -82 hlineto
          -67 -19 -37 -53 hvcurveto
          -238 vlineto
          -76 -25 -34 -58 vhcurveto
          -17 -70 17 hlineto
          58 25 -34 -74 hvcurveto
          -241 vlineto
          -54 19 -36 67 vhcurveto
          82 71 -45 hlineto
          -24 -8 8 23 hvcurveto
          254 vlineto
          69 -26 43 -50 6 vhcurveto
          49 7 27 42 72 vvcurveto
          endchar
        </CharString>
        <CharString name="braceright">
          -114 84 431 rmoveto
          -72 26 -42 50 -7 vhcurveto
          -50 -6 -26 -43 -69 vvcurveto
          -254 vlineto
          -23 -8 -8 -24 vhcurveto
          -45 -71 82 hlineto
          67 18 36 54 hvcurveto
          241 vlineto
          74 25 34 59 vhcurveto
          16 70 -16 hlineto
          -59 -25 34 76 hvcurveto
          238 vlineto
          53 -18 37 -67 vhcurveto
          -82 -71 45 hlineto
          24 8 -8 -22 hvcurveto
          endchar
        </CharString>
        <CharString name="bracketleft">
          -86 249 710 rmoveto
          73 -191 -948 191 73 -100 802 vlineto
          endchar
        </CharString>
        <CharString name="bracketright">
          -86 234 783 rmoveto
          -190 -73 99 -802 -99 -73 190 hlineto
          endchar
        </CharString>
        <CharString name="breve">
          24 271 651 rmoveto
          78 callsubr
          101 hlineto
          65 29 31 58 hvcurveto
          43 vlineto
          endchar
        </CharString>
        <CharString name="brokenbar">
          -200 52 250 rmoveto
          -347 91 347 vlineto
          125 vmoveto
          347 -91 -347 vlineto
          endchar
        </CharString>
        <CharString name="bullet">
          -1 67 321 rmoveto
          -72 59 -59 72 72 59 59 72 72 -59 59 -72 -72 -59 -59 -72 vhcurveto
          endchar
        </CharString>
        <CharString name="c">
          -46 320 334 rmoveto
          423 callsubr
          -95 hlineto
          7 callgsubr
          vlineto
          endchar
        </CharString>
        <CharString name="cacute">
          -46 321 651 56 callsubr
          -85 -31 rmoveto
          7 callgsubr
          89 423 callsubr
          endchar
        </CharString>
        <CharString name="caron">
          24 160 519 rmoveto
          101 hlineto
          95 132 rlineto
          -93 hlineto
          -53 -81 -52 81 rlineto
          -94 hlineto
          endchar
        </CharString>
        <CharString name="ccaron">
          -46 230 519 -2 callgsubr
          2 -31 rmoveto
          7 callgsubr
          89 423 callsubr
          endchar
        </CharString>
        <CharString name="ccedilla">
          -46 140 219 callgsubr
          180 384 rmoveto
          423 callsubr
          -95 hlineto
          7 callgsubr
          vlineto
          endchar
        </CharString>
        <CharString name="cedilla">
          24 206 219 callgsubr
          endchar
        </CharString>
        <CharString name="cent">
          -46 320 334 rmoveto
          423 callsubr
          -1 77 -86 -77 -8 hlineto
          16 callgsubr
          8 -76 86 76 1 hlineto
          129 callsubr
          66 -89 -52 19 callsubr
          -43 169 callgsubr
          43 -92 callsubr
          -52 vlineto
          endchar
        </CharString>
        <CharString name="circumflex">
          24 64 519 240 callgsubr
        </CharString>
        <CharString name="colon">
          -232 32 70 rmoveto
          358 callsubr
          102 vmoveto
          358 callsubr
          endchar
        </CharString>
        <CharString name="comma">
          254 callgsubr
          endchar
        </CharString>
        <CharString name="copyright">
          304 670 341 rmoveto
          184 -61 101 -156 vhcurveto
          -191 hlineto
          -156 -61 -101 -184 hvcurveto
          -63 vlineto
          -184 61 -94 156 vhcurveto
          191 hlineto
          156 61 94 184 hvcurveto
          -400 -210 rmoveto
          -110 -35 79 126 hvcurveto
          73 vlineto
          126 35 88 110 vhcurveto
          175 hlineto
          110 35 -88 -126 hvcurveto
          -73 vlineto
          -126 -35 -79 -110 vhcurveto
          -38 176 rmoveto
          -22 -5 -5 -23 vhcurveto
          -43 hlineto
          -23 -5 5 22 hvcurveto
          148 vlineto
          23 5 5 23 vhcurveto
          43 hlineto
          23 5 -5 -23 hvcurveto
          -25 80 38 vlineto
          53 -27 28 -57 vhcurveto
          -90 hlineto
          -58 -26 -28 -53 hvcurveto
          -174 vlineto
          -52 26 -28 58 vhcurveto
          90 hlineto
          57 27 28 52 hvcurveto
          39 -80 vlineto
          endchar
        </CharString>
        <CharString name="currency">
          87 222 176 rmoveto
          -31 -9 6 34 hvcurveto
          165 vlineto
          35 9 6 31 vhcurveto
          52 hlineto
          32 9 -6 -35 hvcurveto
          -165 vlineto
          -34 -9 -6 -32 vhcurveto
          123 214 rmoveto
          21 -3 17 -6 14 vhcurveto
          44 44 -58 58 -54 -54 rlineto
          1 -7 -8 0 -8 hhcurveto
          -97 hlineto
          -11 -9 -1 -1 -9 hvcurveto
          -55 55 -58 -58 49 -49 rlineto
          -5 -13 -2 -16 -18 vvcurveto
          -182 vlineto
          -16 2 -15 3 -12 vhcurveto
          -47 -47 58 -58 49 49 rlineto
          -2 11 11 -1 13 hhcurveto
          97 hlineto
          10 10 1 1 9 hvcurveto
          48 -48 58 58 -42 42 rlineto
          5 13 2 16 19 vvcurveto
          endchar
        </CharString>
        <CharString name="d">
          -37 227 callsubr
          596 rmoveto
          -219 vlineto
          228 callgsubr
          vlineto
          endchar
        </CharString>
        <CharString name="dagger">
          -35 356 465 rmoveto
          406 callsubr
          -504 90 504 130 hlineto
          endchar
        </CharString>
        <CharString name="daggerdbl">
          -13 367 394 rmoveto
          71 406 callsubr
          -315 -130 -70 130 -162 90 162 130 70 -130 315 vlineto
          endchar
        </CharString>
        <CharString name="danda">
          -55 432 callsubr
          endchar
        </CharString>
        <CharString name="dcaron">
          -8 227 callsubr
          377 rmoveto
          228 callgsubr
          -90 vlineto
          134 hmoveto
          -171 29 vlineto
          44 124 rlineto
          47 vlineto
          endchar
        </CharString>
        <CharString name="dcroat">
          -32 163 73 -55 callgsubr
          169 534 rmoveto
          -46 62 -90 -62 -80 -62 80 -96 hlineto
          39 callsubr
          545 46 vlineto
          endchar
        </CharString>
        <CharString name="degree">
          -14 324 539 rmoveto
          57 -27 30 -64 vhcurveto
          -88 hlineto
          -64 -27 -30 -57 hvcurveto
          -110 vlineto
          -56 27 -30 64 vhcurveto
          88 hlineto
          64 27 30 56 hvcurveto
          -84 8 rmoveto
          -23 -5 -5 -25 vhcurveto
          -42 207 callsubr
          95 vlineto
          22 6 6 24 vhcurveto
          42 hlineto
          25 5 -6 -22 hvcurveto
          endchar
        </CharString>
        <CharString name="dieresis">
          24 65 541 231 callgsubr
          endchar
        </CharString>
        <CharString name="divide">
          15 25 276 rmoveto
          362 74 -362 hlineto
          136 151 rmoveto
          -88 90 88 vlineto
          -90 -289 rmoveto
          -87 90 87 vlineto
          endchar
        </CharString>
        <CharString name="dollar">
          -36 159 356 348 callgsubr
          139 -79 callgsubr
          42 hlineto
          24 6 303 callsubr
          -28 31 -65 vhcurveto
          -5 77 -86 -77 -7 143 callgsubr
          -165 vlineto
          -57 27 -32 64 vhcurveto
          74 35 callgsubr
          -153 vlineto
          93 callsubr
          5 -77 86 77 6 hlineto
          129 callsubr
          180 vlineto
          57 -28 31 -64 vhcurveto
          endchar
        </CharString>
        <CharString name="dotaccent">
          24 157 537 rmoveto
          107 96 -107 hlineto
          endchar
        </CharString>
        <CharString name="dotlessi">
          156 callsubr
          endchar
        </CharString>
        <CharString name="dottedcircle">
          263 139 517 rmoveto
          -26 18 -19 26 26 18 19 26 25 -18 19 -26 -26 -18 -19 -25 vhcurveto
          -82 -110 rmoveto
          -25 20 -19 26 24 20 19 25 25 -20 19 -24 -26 -20 -19 -25 vhcurveto
          -13 -126 rmoveto
          -25 19 -18 25 26 18 18 430 callsubr
          52 -116 rmoveto
          -26 18 -18 26 25 19 18 26 25 -19 19 -25 -26 -18 -19 -25 vhcurveto
          101 -75 rmoveto
          -26 19 -20 26 25 19 20 26 24 -19 20 -25 -26 -19 -20 -24 vhcurveto
          127 -16 rmoveto
          -26 18 -18 26 26 19 18 26 26 -19 18 -26 -26 -18 -18 -26 vhcurveto
          121 53 rmoveto
          -26 19 -18 25 25 20 18 26 25 -20 19 -25 -25 -19 -19 -25 vhcurveto
          73 98 rmoveto
          -25 19 -19 26 24 19 19 25 26 -19 19 -24 -26 -19 -19 -26 vhcurveto
          10 134 rmoveto
          -26 18 -18 26 25 19 18 26 26 -19 18 -25 -26 -18 -18 -26 vhcurveto
          -50 118 rmoveto
          -25 19 -19 25 26 18 19 430 callsubr
          -95 68 rmoveto
          -24 19 -20 26 25 18 20 24 26 -18 19 -25 -26 -19 -19 -26 vhcurveto
          -126 15 rmoveto
          -26 18 -18 26 26 18 18 26 26 -18 18 -26 -26 -18 -18 -26 vhcurveto
          endchar
        </CharString>
        <CharString name="doubledanda">
          126 432 callsubr
          181 688 rmoveto
          -86 -688 86 hlineto
          endchar
        </CharString>
        <CharString name="dvA">
          151 568 626 rmoveto
          -161 -94 callsubr
          72 vlineto
          endchar
        </CharString>
        <CharString name="dvAA">
          346 762 626 rmoveto
          -355 -94 callsubr
          105 -556 226 callgsubr
        </CharString>
        <CharString name="dvAI">
          8 425 626 rmoveto
          -73 165 callsubr
          -279 36 callsubr
        </CharString>
        <CharString name="dvAU">
          346 762 626 rmoveto
          -74 hlineto
          -39 193 296 callgsubr
          -114 hlineto
          135 -125 41 -37 27 -20 15 -11 rlinecurve
          -183 -94 callsubr
          105 -556 226 callgsubr
        </CharString>
        <CharString name="dvAbbreviationsign">
          -35 58 308 rmoveto
          -84 48 -47 75 74 49 47 84 84 -49 47 -74 -75 -48 -47 -84 vhcurveto
          74 hmoveto
          45 16 21 33 32 17 -21 -45 -45 -18 -21 -31 -32 -17 21 45 vhcurveto
          endchar
        </CharString>
        <CharString name="dvAcandra">
          92 568 626 rmoveto
          -161 -94 callsubr
          72 vlineto
          -36 255 108 callsubr
        </CharString>
        <CharString name="dvAnusvara">
          -397 -141 822 336 callgsubr
        </CharString>
        <CharString name="dvAnusvara.amI">
          -397 22 752 434 callgsubr
        </CharString>
        <CharString name="dvAvagraha">
          -29 304 558 rmoveto
          68 -156 vlineto
          158 callsubr
          -150 vlineto
          -22 callgsubr
          64 vhcurveto
          55 224 callsubr
          -23 hvcurveto
          -181 -36 callsubr
          -39 167 callgsubr
          67 -90 -79 vlineto
          -11 callsubr
          169 callsubr
          205 vlineto
          57 -27 28 -65 vhcurveto
          -54 410 callgsubr
          126 407 callsubr
        </CharString>
        <CharString name="dvB">
          -166 316 626 rmoveto
          -336 -70 336 hlineto
          -180 -478 rmoveto
          180 59 hlineto
          0 -53 110 -27 46 vhcurveto
          -69 121 rlineto
          75 68 -104 215 callgsubr
          100 vmoveto
          204 vlineto
          5 -7 18 -38 30 -56 75 -133 rcurveline
          -99 -82 callsubr
          endchar
        </CharString>
        <CharString name="dvBA">
          28 165 148 -66 callsubr
          -3 -4 0 -5 hhcurveto
          191 478 rmoveto
          -465 -70 302 -231 hlineto
          161 callgsubr
        </CharString>
        <CharString name="dvBH">
          -10 242 callsubr
          132 -62 callgsubr
          72 hlineto
          248 70 rmoveto
          -158 131 -48 callgsubr
          -119 -99 vlineto
          -30 callgsubr
          -157 24 callsubr
          172 158 vlineto
          endchar
        </CharString>
        <CharString name="dvBHA">
          175 235 178 54 callsubr
        </CharString>
        <CharString name="dvBH_LA">
          523 242 callsubr
          133 306 callsubr
          703 287 rmoveto
          -563 -70 406 -74 229 callsubr
          -54 -30 -22 -50 -5 hvcurveto
          -98 130 -48 callgsubr
          -118 308 callsubr
          -158 24 callsubr
          172 97 -254 106 callgsubr
          24 5 -6 -24 hvcurveto
          -191 90 191 408 callsubr
          59 -412 91 556 66 hlineto
          endchar
        </CharString>
        <CharString name="dvBH_NA">
          502 585 283 callsubr
          -350 -234 33 callgsubr
          128 -62 callgsubr
          72 hlineto
          684 291 rmoveto
          -510 -70 348 -74 -257 hlineto
          -61 -27 -25 -52 -3 hvcurveto
          -84 135 -48 callgsubr
          -123 308 callsubr
          -153 24 callsubr
          168 84 -168 vlineto
          -61 29 -28 67 vhcurveto
          162 callgsubr
        </CharString>
        <CharString name="dvBH_R">
          43 255 -56 rmoveto
          205 223 rlineto
          106 vlineto
          -306 -329 rlineto
          81 289 314 callsubr
          90 71 rmoveto
          129 vlineto
          -45 callsubr
          -117 308 callsubr
          -104 24 callsubr
          118 135 71 vlineto
          endchar
        </CharString>
        <CharString name="dvBH_RA">
          175 235 233 314 callsubr
          357 286 rmoveto
          -162 -215 -105 129 -48 callgsubr
          -117 308 callsubr
          -104 24 callsubr
          118 105 -98 vlineto
          -276 -298 rlineto
          101 hlineto
          175 191 rlineto
          -135 113 callsubr
        </CharString>
        <CharString name="dvBH_R_YA">
          467 722 -20 callsubr
          161 -16 callsubr
          99 61 callgsubr
          -487 -323 392 callsubr
          78 306 callsubr
          649 287 rmoveto
          -509 -70 131 hlineto
          426 callgsubr
          -85 413 callgsubr
          -195 130 -48 callgsubr
          -118 308 callsubr
          -103 24 callsubr
          117 105 -99 vlineto
          -276 -296 rlineto
          101 hlineto
          179 191 rlineto
          -39 10 31 -18 52 97 callsubr
        </CharString>
        <CharString name="dvBH_VA">
          356 242 callsubr
          133 306 callsubr
          538 287 rmoveto
          -398 -70 236 64 callgsubr
          -57 hlineto
          -60 -28 -23 -49 -4 hvcurveto
          -97 130 -48 callgsubr
          -118 308 callsubr
          -158 24 callsubr
          172 97 -172 vlineto
          -61 -27 callgsubr
          405 callgsubr
          72 vlineto
          endchar
        </CharString>
        <CharString name="dvBH_YA">
          446 700 182 -8 callsubr
        </CharString>
        <CharString name="dvB_BA">
          268 406 265 callgsubr
          -326 hmoveto
          -61 callgsubr
          -4 -4 0 -4 hhcurveto
          427 478 rmoveto
          -705 -70 543 -231 hlineto
          127 callgsubr
          -105 173 callgsubr
          17 6 15 10 hvcurveto
          -14 15 22 -7 29 hhcurveto
          114 280 callsubr
        </CharString>
        <CharString name="dvB_BHA">
          418 271 callsubr
          231 284 callsubr
          -308 -191 -66 callsubr
          -4 -4 0 -4 hhcurveto
          577 478 rmoveto
          -162 -217 -106 131 302 callsubr
          -64 134 callgsubr
          5 5 24 vhcurveto
          34 84 callgsubr
          -119 -99 vlineto
          -30 callgsubr
          -52 vlineto
          167 callsubr
          88 -78 callsubr
          172 106 -339 -100 callgsubr
        </CharString>
        <CharString name="dvB_BH_RA">
          414 271 callsubr
          227 -323 312 callsubr
          -308 -192 -66 callsubr
          -3 -4 0 -5 hhcurveto
          577 478 rmoveto
          -162 -215 -106 129 49 callsubr
          -117 -99 vlineto
          -64 -28 -28 -57 hvcurveto
          -54 vlineto
          -50 6 -25 0 vhcurveto
          0 -25 50 -27 46 vhcurveto
          -69 121 rlineto
          75 68 -104 215 callgsubr
          131 hlineto
          46 27 20 37 11 hvcurveto
          -1 9 9 -1 10 hhcurveto
          88 -78 callsubr
          118 106 -98 92 callgsubr
        </CharString>
        <CharString name="dvB_DA">
          204 159 265 callgsubr
          301 264 rmoveto
          144 72 70 -641 -70 479 -74 -91 vlineto
          -30 callgsubr
          -72 340 callgsubr
          -105 hlineto
          -64 -28 14 callgsubr
          117 hlineto
          27 18 343 callsubr
          32 hhcurveto
          56 344 callsubr
          91 271 -91 426 callsubr
          -23 vhcurveto
          -37 hlineto
          -24 317 callgsubr
          endchar
        </CharString>
        <CharString name="dvB_DHA">
          300 271 callsubr
          -77 -408 -66 callsubr
          -4 -4 0 -4 hhcurveto
          461 478 rmoveto
          -163 -444 hlineto
          -26 callgsubr
          25 163 callgsubr
          -25 -3 -15 -15 -30 vvcurveto
          -22 105 callgsubr
          28 17 343 callsubr
          33 hhcurveto
          138 -16 callgsubr
          72 vlineto
          endchar
        </CharString>
        <CharString name="dvB_DH_VA">
          490 271 callsubr
          -77 -408 -66 callsubr
          -4 -4 0 -4 hhcurveto
          649 478 rmoveto
          -364 -70 202 257 callsubr
          -28 40 callsubr
          -215 vlineto
          -26 callgsubr
          25 163 callgsubr
          -25 -3 -15 -15 -30 vvcurveto
          -22 105 callgsubr
          28 17 343 callsubr
          33 hhcurveto
          143 hlineto
          27 17 6 14 10 188 callsubr
        </CharString>
        <CharString name="dvB_JA">
          371 159 350 callsubr
          72 -129 rcurveline
          -3 -4 -6 -1 -9 hhcurveto
          556 478 rmoveto
          -812 -70 650 -74 -174 -304 98 callgsubr
          245 83 -412 -100 callgsubr
        </CharString>
        <CharString name="dvB_JHA">
          407 678 320 rmoveto
          -265 -87 callsubr
          36 -79 callgsubr
          155 142 110 hlineto
          -517 -424 rmoveto
          11 callgsubr
          24 hvcurveto
          216 vlineto
          2 -7 15 -36 33 -62 72 -136 rcurveline
          -3 -4 -6 -1 -9 hhcurveto
          605 494 rmoveto
          -860 -70 498 -74 -93 hlineto
          -65 374 callgsubr
          65 vhcurveto
          74 84 callgsubr
          -64 -36 callsubr
          -74 94 -90 -71 hlineto
          -132 261 rlineto
          71 68 -102 380 callgsubr
          -242 vlineto
          -62 326 callgsubr
          118 hlineto
          20 15 5 9 10 hvcurveto
          -89 90 75 101 vlineto
          120 callsubr
          102 -252 290 callsubr
        </CharString>
        <CharString name="dvB_J_YA">
          658 922 -42 callsubr
          164 378 callsubr
          96 95 callsubr
          -763 -408 202 callsubr
          72 -129 rcurveline
          -3 -4 -6 -1 -9 hhcurveto
          848 478 rmoveto
          -1104 -70 725 hlineto
          41 256 callsubr
          -82 -36 callsubr
          -264 -234 98 callgsubr
          175 83 -175 22 callgsubr
        </CharString>
        <CharString name="dvB_JxA">
          386 389 -95 9 callsubr
          -220 148 -66 callsubr
          -3 -4 0 -5 hhcurveto
          545 400 callsubr
          -74 -174 -304 hlineto
          84 callsubr
          -91 -200 vlineto
          -64 6 -21 -37 callgsubr
          117 hlineto
          26 18 6 14 10 hvcurveto
          -14 15 21 -6 29 hhcurveto
          85 409 callgsubr
          245 83 -412 -100 callgsubr
        </CharString>
        <CharString name="dvB_LA">
          385 169 148 -66 callsubr
          -3 -4 0 -5 hhcurveto
          544 478 rmoveto
          -822 -70 666 -74 -84 hlineto
          -30 318 callsubr
          -15 14 -31 hhcurveto
          -87 380 callgsubr
          -68 vlineto
          -89 6 -39 141 callgsubr
          281 vlineto
          25 -34 callsubr
          31 hlineto
          25 5 -6 -24 hvcurveto
          -197 90 197 6 callsubr
          60 -412 90 556 66 hlineto
          endchar
        </CharString>
        <CharString name="dvB_L_YA">
          683 938 -33 callgsubr
          -139 -82 callsubr
          172 -16 callsubr
          88 95 callsubr
          -769 -408 -66 callsubr
          -3 -4 0 -5 hhcurveto
          842 478 rmoveto
          -1120 -70 741 hlineto
          40 4 -5 -28 hvcurveto
          -74 234 callsubr
          -173 hlineto
          -30 -15 -15 -24 -3 hvcurveto
          -2 hlineto
          24 -3 -15 15 -31 hhcurveto
          -87 hlineto
          -60 -30 -28 -61 hvcurveto
          -13 vlineto
          -80 6 -42 141 callgsubr
          220 -75 callgsubr
          31 hlineto
          25 5 -6 -23 hvcurveto
          -168 90 168 347 callsubr
          60 -183 hlineto
          21 callsubr
        </CharString>
        <CharString name="dvB_NA">
          380 463 178 119 callgsubr
          -294 -264 -66 callsubr
          -4 -4 0 -4 hhcurveto
          539 478 rmoveto
          -817 -70 655 -74 -257 173 callgsubr
          18 343 callsubr
          33 hhcurveto
          162 callgsubr
        </CharString>
        <CharString name="dvB_R">
          -103 -20 626 rmoveto
          -70 332 70 vlineto
          -176 -448 rmoveto
          204 vlineto
          5 -7 18 -38 30 -56 75 -133 rcurveline
          -99 -82 callsubr
          -90 219 rmoveto
          100 callgsubr
          80 hlineto
          -102 -130 rlineto
          99 hlineto
          99 131 rlineto
          64 vlineto
          -7 6 -42 98 -27 46 -69 121 rcurveline
          375 callgsubr
          endchar
        </CharString>
        <CharString name="dvB_RA">
          28 165 172 282 callgsubr
          203 454 rmoveto
          -465 -70 302 387 callsubr
          -69 109 431 callsubr
          -206 266 callgsubr
        </CharString>
        <CharString name="dvB_SA">
          395 651 348 rmoveto
          -103 hlineto
          -101 callsubr
          96 hlineto
          -482 -408 -66 callsubr
          -3 -4 0 -5 hhcurveto
          554 478 rmoveto
          -832 -70 461 hlineto
          -77 callsubr
          -64 103 -91 -126 hlineto
          164 callgsubr
          169 callsubr
          121 -90 -109 -36 callsubr
          -37 -11 callgsubr
          181 274 179 callgsubr
        </CharString>
        <CharString name="dvB_SHA">
          396 254 626 rmoveto
          -274 -70 274 hlineto
          -77 -408 rmoveto
          -24 -5 -60 callsubr
          -3 -4 0 -5 hhcurveto
          122 480 243 callsubr
          23 404 callsubr
          -64 50 -91 -56 hlineto
          127 callgsubr
          -105 hlineto
          -64 29 callgsubr
          113 hlineto
          15 10 2 6 8 hvcurveto
          -1 124 callgsubr
        </CharString>
        <CharString name="dvB_TA">
          236 169 148 -66 callsubr
          -3 -4 0 -5 hhcurveto
          403 478 rmoveto
          -681 -70 519 -74 -121 -21 callsubr
          -72 vlineto
          164 callgsubr
          57 73 -29 -43 callsubr
          23 hvcurveto
          282 -75 callgsubr
          93 190 callsubr
          hlineto
          endchar
        </CharString>
        <CharString name="dvB_VA">
          220 169 148 -66 callsubr
          -3 -4 0 -5 hhcurveto
          379 478 rmoveto
          -657 -70 495 66 callgsubr
          -115 vlineto
          -64 6 -21 -37 callgsubr
          117 hlineto
          26 18 6 14 10 hvcurveto
          -14 15 21 -6 239 callgsubr
        </CharString>
        <CharString name="dvB_YA">
          323 578 212 callgsubr
          -409 -408 -66 callsubr
          -4 -4 0 -4 hhcurveto
          482 478 rmoveto
          -760 -70 382 131 callsubr
          -90 -106 hlineto
          167 callsubr
          160 -16 callgsubr
          71 vlineto
          endchar
        </CharString>
        <CharString name="dvC">
          -181 153 382 rmoveto
          6 callgsubr
          23 vhcurveto
          38 70 -219 -70 73 hlineto
          -7 -6 -4 -10 -16 204 callgsubr
          158 70 -129 -82 callsubr
          -173 448 rmoveto
          -70 331 70 vlineto
          endchar
        </CharString>
        <CharString name="dvCA">
          13 430 626 114 callgsubr
        </CharString>
        <CharString name="dvCH">
          146 563 626 rmoveto
          -583 -70 78 hlineto
          70 callgsubr
          253 hlineto
          65 32 -46 callgsubr
          308 vlineto
          60 -31 25 -62 vhcurveto
          -57 hlineto
          -61 -31 -25 -60 hvcurveto
          -132 -96 callsubr
          374 hlineto
          endchar
        </CharString>
        <CharString name="dvCHA">
          146 335 482 10 callsubr
        </CharString>
        <CharString name="dvCH_RA">
          146 335 -12 callsubr
          228 hmoveto
          70 -583 -70 78 vlineto
          70 callgsubr
          60 hlineto
          109 callsubr
          141 rlineto
          53 hlineto
          65 32 260 callgsubr
        </CharString>
        <CharString name="dvCH_R_YA">
          -4 callsubr
          57 hlineto
          109 callsubr
          141 rlineto
          56 hlineto
          65 32 -46 callgsubr
          311 vlineto
          6 0 5 -1 5 vhcurveto
          169 -92 callsubr
          -66 234 callsubr
          -89 -126 hlineto
          21 callsubr
        </CharString>
        <CharString name="dvCH_YA">
          -4 callsubr
          253 hlineto
          65 32 -46 callgsubr
          311 vlineto
          6 0 5 -1 5 vhcurveto
          169 -92 callsubr
          -66 234 callsubr
          -89 -126 hlineto
          21 callsubr
        </CharString>
        <CharString name="dvC_CA">
          218 635 626 rmoveto
          -655 -70 493 -376 hlineto
          -24 -8 -8 -23 vhcurveto
          -54 387 callgsubr
          35 70 -185 -70 39 335 callsubr
          -198 vlineto
          336 callsubr
          -53 387 callgsubr
          8 70 -191 -70 72 hlineto
          -6 -6 -4 -11 -15 204 callgsubr
          84 hlineto
          28 18 6 13 11 437 callsubr
          -6 28 hhcurveto
          78 281 callsubr
        </CharString>
        <CharString name="dvC_CHA">
          364 553 60 callgsubr
          -801 -70 297 vlineto
          -5 33 callsubr
          -78 315 callsubr
          34 70 -215 -70 73 hlineto
          -7 -6 -4 -10 -16 204 callgsubr
          74 hlineto
          18 13 3 5 11 hvcurveto
          -59 1 31 -27 64 hhcurveto
          254 hlineto
          65 31 260 callgsubr
        </CharString>
        <CharString name="dvC_CH_VA">
          362 551 -12 callsubr
          -97 -655 rmoveto
          -22 -5 417 callgsubr
          106 -69 hlineto
          -23 -8 -7 -21 vhcurveto
          255 655 rmoveto
          70 -799 -70 294 vlineto
          77 callgsubr
          -78 315 callsubr
          34 70 -214 -70 71 hlineto
          -6 -6 -4 -10 -16 204 callgsubr
          74 hlineto
          18 13 3 5 11 hvcurveto
          1 -56 28 -27 59 -3 rrcurveto
          -5 -6 -3 -8 -13 vvcurveto
          -56 vlineto
          -54 28 -30 58 vhcurveto
          86 hlineto
          16 11 3 8 7 hvcurveto
          -75 79 232 vlineto
          54 4 27 28 56 vvcurveto
          245 callgsubr
        </CharString>
        <CharString name="dvC_MA">
          400 655 240 callsubr
          23 vhcurveto
          75 hlineto
          358 264 rmoveto
          -837 -70 479 -124 -98 hlineto
          91 callsubr
          -165 vlineto
          76 callsubr
          31 20 355 callgsubr
          328 callgsubr
        </CharString>
        <CharString name="dvC_NA">
          362 445 178 181 callgsubr
          334 214 rmoveto
          -799 -70 637 -74 -256 -21 callsubr
          -215 vlineto
          76 callsubr
          31 20 355 callgsubr
          74 -78 callsubr
          245 82 -412 113 callsubr
        </CharString>
        <CharString name="dvC_R">
          -140 153 382 rmoveto
          225 callsubr
          117 181 rlineto
          47 -95 vlineto
          -77 callgsubr
          -173 420 rmoveto
          -70 297 70 vlineto
          endchar
        </CharString>
        <CharString name="dvC_RA">
          17 430 626 rmoveto
          -450 -70 288 -348 hlineto
          -24 -8 -8 -24 vhcurveto
          -54 -82 callsubr
          176 vlineto
          225 callsubr
          108 425 callgsubr
          -100 callgsubr
        </CharString>
        <CharString name="dvC_YA">
          306 561 182 -26 callsubr
          149 callgsubr
          -743 -70 364 229 callgsubr
          76 callsubr
          32 19 9 17 11 hvcurveto
          -18 15 26 -8 35 hhcurveto
          160 -75 callsubr
        </CharString>
        <CharString name="dvCandrabindu">
          -397 -250 326 callsubr
          -79 -47 vlineto
          -24 -6 -6 -25 vhcurveto
          -88 320 callgsubr
          47 vlineto
          34 46 rmoveto
          -82 79 82 vlineto
          endchar
        </CharString>
        <CharString name="dvD">
          0 237 hmoveto
          90 271 -90 -91 hlineto
          50 callgsubr
          153 219 callsubr
          -21 callsubr
          -230 vlineto
          -61 29 -28 67 vhcurveto
          56 hlineto
          17 -63 callgsubr
          86 -150 290 callgsubr
        </CharString>
        <CharString name="dvDA">
          -23 322 412 rmoveto
          144 72 70 -417 -70 255 -74 -91 vlineto
          -65 -27 -27 -58 hvcurveto
          -230 -31 callsubr
        </CharString>
        <CharString name="dvDA_mvR">
          241 callgsubr
          56 hlineto
          17 -63 callgsubr
          -88 -4 vlineto
          -64 -26 -28 -57 hvcurveto
          -62 vlineto
          -11 callsubr
          137 71 -109 207 callsubr
          36 321 callgsubr
          64 339 -90 -91 hlineto
          50 callgsubr
          endchar
        </CharString>
        <CharString name="dvDD">
          -21 134 -61 113 callgsubr
          -249 687 rmoveto
          -70 237 -74 -71 vlineto
          -64 -27 -27 -58 hvcurveto
          -91 callsubr
          133 142 89 70 hlineto
          endchar
        </CharString>
        <CharString name="dvDDA">
          -21 307 255 callsubr
          89 70 -416 -70 237 -74 -71 vlineto
          -64 -27 -27 -58 hvcurveto
          -91 callsubr
          endchar
        </CharString>
        <CharString name="dvDDH">
          9 143 -61 113 callgsubr
          79 473 rmoveto
          144 109 70 -446 385 callgsubr
          vlineto
          -44 callsubr
          endchar
        </CharString>
        <CharString name="dvDDHA">
          9 317 291 callgsubr
          109 70 -446 385 callgsubr
          vlineto
          -44 callsubr
          endchar
        </CharString>
        <CharString name="dvDDH_DDHA">
          9 317 291 callgsubr
          109 70 -446 385 callgsubr
          vlineto
          -30 callgsubr
          -201 vlineto
          -32 14 -17 191 callgsubr
          -2 -14 -16 -31 vvcurveto
          -178 vlineto
          -61 29 -28 67 vhcurveto
          131 -78 callsubr
          39 vlineto
          62 -29 27 -67 vhcurveto
          -87 -70 63 -92 callsubr
          -18 409 callsubr
          -83 -79 callsubr
          166 -62 callgsubr
          108 -78 callsubr
          43 vlineto
          62 -29 27 -67 vhcurveto
          -87 -70 63 26 callgsubr
          -21 409 callsubr
          -83 -79 callsubr
          161 -58 callgsubr
          endchar
        </CharString>
        <CharString name="dvDDH_R">
          9 154 -156 113 callgsubr
          68 568 59 callgsubr
        </CharString>
        <CharString name="dvDDH_RA">
          9 317 412 59 callgsubr
        </CharString>
        <CharString name="dvDDH_YA">
          456 711 361 callsubr
          76 378 callsubr
          57 vlineto
          57 -26 30 -64 vhcurveto
          -219 75 394 hlineto
          149 callgsubr
          -893 385 callgsubr
          hlineto
          -44 callsubr
          336 hlineto
          24 6 -5 -24 hvcurveto
          333 callsubr
          -89 -153 298 callgsubr
        </CharString>
        <CharString name="dvDDHxA">
          9 164 -148 9 callsubr
          153 465 rmoveto
          144 109 70 -446 385 callgsubr
          vlineto
          -44 callsubr
          endchar
        </CharString>
        <CharString name="dvDD_DDA">
          103 callgsubr
          -37 vlineto
          -53 25 -27 64 vhcurveto
          114 178 callgsubr
          -24 vlineto
          -23 -5 -6 -24 vhcurveto
          -85 167 callgsubr
          12 -90 -24 vlineto
          -11 callsubr
          139 125 callsubr
          48 vlineto
          57 -27 28 -64 vhcurveto
          -111 207 callsubr
          20 210 callsubr
        </CharString>
        <CharString name="dvDD_DDHA">
          103 callgsubr
          -178 vlineto
          -61 29 -28 67 vhcurveto
          131 409 callgsubr
          43 vlineto
          62 -29 27 -68 vhcurveto
          -87 -70 64 224 callsubr
          -25 hvcurveto
          -21 vlineto
          -25 -6 -5 -23 vhcurveto
          -84 -79 callsubr
          166 210 callsubr
        </CharString>
        <CharString name="dvDD_R">
          -21 134 -156 113 callgsubr
          -249 782 rmoveto
          -22 callsubr
          133 142 89 70 hlineto
          endchar
        </CharString>
        <CharString name="dvDD_RA">
          -21 307 255 callsubr
          89 70 -416 -22 callsubr
          endchar
        </CharString>
        <CharString name="dvDD_VA">
          -8 258 56 rmoveto
          -23 -7 -7 -21 vhcurveto
          -71 hlineto
          -22 -5 5 22 hvcurveto
          37 -75 callgsubr
          62 hlineto
          14 12 2 3 9 hvcurveto
          73 290 rmoveto
          142 78 70 -429 -70 261 -74 -96 vlineto
          -30 callgsubr
          -35 vlineto
          -11 callsubr
          84 hlineto
          24 5 -5 -19 hvcurveto
          -41 vlineto
          -19 1 callgsubr
          -69 hlineto
          -23 -5 5 23 hvcurveto
          18 -91 -41 vlineto
          -30 15 -16 191 callgsubr
          -3 -15 -15 -30 vvcurveto
          -53 vlineto
          -52 27 -31 64 vhcurveto
          93 hlineto
          16 11 3 7 6 hvcurveto
          -74 91 367 vlineto
          57 -27 28 -65 vhcurveto
          -85 hlineto
          -23 -6 5 19 hvcurveto
          15 365 callsubr
        </CharString>
        <CharString name="dvDD_YA">
          420 674 180 213 callsubr
          76 -16 callsubr
          57 347 callgsubr
          -192 73 367 hlineto
          163 70 rmoveto
          -857 -70 237 -74 -71 hlineto
          -64 -27 -27 -58 hvcurveto
          -91 callsubr
          298 35 callgsubr
          -38 -13 callgsubr
          -89 -153 hlineto
          -61 140 callgsubr
          160 hlineto
          16 -63 callgsubr
          -87 91 vlineto
          -1 556 rlineto
          73 hlineto
          endchar
        </CharString>
        <CharString name="dvDDxA">
          -21 138 -151 9 callsubr
          169 470 rmoveto
          142 89 70 -416 -70 237 -74 -71 vlineto
          -64 -27 -27 -58 hvcurveto
          -91 callsubr
          endchar
        </CharString>
        <CharString name="dvDH">
          -48 158 409 rmoveto
          39 callgsubr
          -154 118 callsubr
          292 70 -262 -86 callsubr
          101 vlineto
          25 -34 callsubr
          68 70 -68 -86 callsubr
          endchar
        </CharString>
        <CharString name="dvDHA">
          81 499 626 rmoveto
          -162 -444 73 callgsubr
          145 -38 callgsubr
        </CharString>
        <CharString name="dvDH_MA">
          475 730 408 rmoveto
          -112 148 112 hlineto
          -202 251 callsubr
          -24 vhcurveto
          -44 hlineto
          -24 389 callgsubr
          364 288 rmoveto
          -555 -70 191 -148 -99 -21 callsubr
          -141 vlineto
          -51 callgsubr
          23 13 6 15 6 hvcurveto
          -14 16 24 -7 33 hhcurveto
          88 -78 callsubr
          171 112 -338 -100 callgsubr
        </CharString>
        <CharString name="dvDH_NA">
          431 514 178 119 callgsubr
          334 214 rmoveto
          -511 -70 349 319 callgsubr
          -215 vlineto
          -51 callgsubr
          23 13 6 15 6 hvcurveto
          -14 16 24 -7 33 hhcurveto
          162 callgsubr
        </CharString>
        <CharString name="dvDH_N_YA">
          728 983 -33 callgsubr
          -139 -86 callsubr
          181 -16 callsubr
          79 26 callsubr
          -7 7 vhcurveto
          95 hlineto
          -469 -378 297 callgsubr
          631 267 rmoveto
          -808 -70 429 hlineto
          426 callgsubr
          -65 -13 callgsubr
          401 callsubr
          -162 vlineto
          -51 callgsubr
          23 13 6 15 6 hvcurveto
          -14 16 24 -7 33 hhcurveto
          74 -78 callsubr
          192 87 -192 vlineto
          21 callsubr
        </CharString>
        <CharString name="dvDH_R">
          -80 67 311 rmoveto
          -120 208 callgsubr
          33 hlineto
          59 11 -112 -169 rlineto
          97 hlineto
          117 181 rlineto
          47 -160 vlineto
          107 callsubr
          endchar
        </CharString>
        <CharString name="dvDH_RA">
          81 499 626 329 callgsubr
          -119 hlineto
          107 callsubr
          -120 208 callgsubr
          47 hlineto
          45 11 -112 -169 259 callgsubr
        </CharString>
        <CharString name="dvDH_VA">
          271 688 626 rmoveto
          -351 -70 189 66 callgsubr
          -215 vlineto
          -51 callgsubr
          22 13 6 14 7 188 callsubr
        </CharString>
        <CharString name="dvDH_YA">
          374 629 105 callsubr
          162 70 268 callgsubr
          -5 -5 -24 vhcurveto
          -90 -196 hlineto
          -51 callgsubr
          23 13 6 15 6 hvcurveto
          -14 17 24 -7 32 97 callsubr
        </CharString>
        <CharString name="dvD_BA">
          17 243 186 rmoveto
          15 11 1 3 11 hvcurveto
          -121 vlineto
          -3 0 -2 -3 vvcurveto
          -119 125 rlineto
          5 hlineto
          -2 -146 rmoveto
          -22 -6 5 22 hvcurveto
          89 vlineto
          0 vlineto
          111 -116 rlineto
          107 372 rmoveto
          144 73 70 -442 -70 279 -74 -123 vlineto
          -30 callgsubr
          -137 vlineto
          -30 15 -16 14 callsubr
          -105 vlineto
          -53 26 -31 65 vhcurveto
          103 hlineto
          16 11 3 7 6 hvcurveto
          -74 91 423 370 callsubr
          97 -58 callgsubr
          endchar
        </CharString>
        <CharString name="dvD_BHA">
          125 143 171 rmoveto
          62 -29 28 -67 vhcurveto
          -32 -71 12 -92 callsubr
          -253 86 75 182 71 -182 vlineto
          327 334 rmoveto
          168 72 70 -562 -70 400 -97 -91 216 callgsubr
          -181 vlineto
          -61 29 -28 67 vhcurveto
          56 223 callgsubr
          -131 90 304 -90 -81 vlineto
          -24 -8 -8 -23 44 callsubr
          155 -79 callgsubr
          endchar
        </CharString>
        <CharString name="dvD_B_RA">
          28 243 192 rmoveto
          15 11 2 3 11 hvcurveto
          -125 vlineto
          -2 vlineto
          -116 122 rlineto
          2 hlineto
          -2 -152 rmoveto
          -22 -6 5 22 hvcurveto
          95 vlineto
          3 vlineto
          119 -125 rlineto
          -8 hlineto
          107 372 rmoveto
          144 73 70 -442 -70 279 -74 -123 vlineto
          -30 callgsubr
          -130 vlineto
          23 callsubr
          -111 vlineto
          -53 26 -31 65 vhcurveto
          36 hlineto
          -108 -113 rlineto
          92 hlineto
          116 126 rlineto
          -77 91 429 370 callsubr
          91 -58 callgsubr
          endchar
        </CharString>
        <CharString name="dvD_DA">
          6 335 291 callgsubr
          88 70 -446 -70 268 -74 -111 vlineto
          -61 -29 -27 -57 hvcurveto
          -71 vlineto
          -30 15 -16 14 callsubr
          -77 vlineto
          -57 29 -28 61 vhcurveto
          90 hlineto
          18 -63 callgsubr
          -89 90 272 -90 -91 vlineto
          322 callsubr
          -72 -11 callgsubr
          48 273 callgsubr
          70 -57 -86 callsubr
          40 407 callsubr
        </CharString>
        <CharString name="dvD_DHA">
          189 136 93 410 callsubr
          43 71 -43 -11 callgsubr
          40 -75 callgsubr
          43 70 -66 hlineto
          -61 -29 -27 -57 hvcurveto
          -71 15 callgsubr
          -67 vlineto
          -58 29 -27 61 vhcurveto
          239 70 -216 -86 callsubr
          399 336 339 callsubr
          -213 vlineto
          179 callsubr
        </CharString>
        <CharString name="dvD_GA">
          236 callsubr
          -75 vlineto
          -19 -5 -5 -19 vhcurveto
          -19 -56 56 hlineto
          51 22 24 45 hvcurveto
          80 19 vlineto
          17 11 3 7 8 hvcurveto
          -201 86 384 -86 -91 vlineto
          197 callgsubr
        </CharString>
        <CharString name="dvD_GHA">
          189 535 391 339 callsubr
          -15 -120 vlineto
          -61 -29 -27 -57 hvcurveto
          -71 15 callgsubr
          -67 vlineto
          -58 29 -27 61 vhcurveto
          239 70 -216 -86 callsubr
          38 -75 callgsubr
          43 71 -43 -11 callgsubr
          40 -75 callgsubr
          97 -128 hlineto
          179 callsubr
        </CharString>
        <CharString name="dvD_G_RA">
          236 callsubr
          -63 vlineto
          -19 -5 -4 -19 vhcurveto
          -19 -56 56 hlineto
          51 22 24 44 hvcurveto
          68 19 vlineto
          17 11 3 7 8 hvcurveto
          -104 vlineto
          -203 -189 rlineto
          92 hlineto
          111 102 rlineto
          -72 86 446 -86 -91 vlineto
          197 callgsubr
        </CharString>
        <CharString name="dvD_MA">
          174 429 165 rmoveto
          -106 130 -90 -61 hlineto
          -25 -8 -7 -23 vhcurveto
          -38 -82 callsubr
          150 -58 callgsubr
          153 144 111 hlineto
          149 callgsubr
          -611 -70 248 -74 -91 -21 callsubr
          -176 vlineto
          337 callgsubr
          56 223 callgsubr
          -142 90 95 106 -95 -100 callgsubr
        </CharString>
        <CharString name="dvD_NA">
          241 callgsubr
          60 223 callgsubr
          -71 -71 vlineto
          -57 -29 -26 -59 hvcurveto
          -41 79 29 -58 callgsubr
          48 -104 86 425 -86 -91 hlineto
          197 callgsubr
        </CharString>
        <CharString name="dvD_R">
          -23 237 hmoveto
          90 271 -90 -63 hlineto
          250 callsubr
          176 -58 callgsubr
          153 219 callsubr
          -21 callsubr
          -206 208 callgsubr
          2 hlineto
          85 callgsubr
          86 -175 290 callgsubr
        </CharString>
        <CharString name="dvD_RA">
          180 callgsubr
          -206 208 callgsubr
          2 89 callgsubr
        </CharString>
        <CharString name="dvD_VA">
          -9 223 395 callgsubr
          -7 -6 -22 vhcurveto
          -71 hlineto
          -21 -6 5 22 hvcurveto
          79 -58 callgsubr
          182 235 rmoveto
          144 65 70 -431 -70 275 -74 -119 vlineto
          -30 callgsubr
          -144 vlineto
          23 callsubr
          -97 vlineto
          -53 26 -31 65 vhcurveto
          93 hlineto
          16 10 3 7 7 hvcurveto
          -74 90 421 -90 -56 vlineto
          -21 -6 -5 -23 vhcurveto
          -68 392 callgsubr
          endchar
        </CharString>
        <CharString name="dvD_YA">
          85 335 178 rmoveto
          322 callsubr
          -136 276 callgsubr
          49 -62 callgsubr
          59 68 -59 276 callgsubr
          40 -62 callgsubr
          84 137 84 hlineto
          149 callgsubr
          -512 -70 179 -71 -26 hlineto
          -61 -29 -27 -56 hvcurveto
          -67 vlineto
          -30 15 -16 24 366 callgsubr
          -24 -2 -15 -15 -30 vvcurveto
          -76 vlineto
          -56 29 -27 61 vhcurveto
          161 344 callsubr
          -100 callgsubr
        </CharString>
        <CharString name="dvE">
          8 425 626 rmoveto
          -445 36 callsubr
        </CharString>
        <CharString name="dvEcandra">
          8 267 668 rmoveto
          349 callsubr
          -80 -47 vlineto
          -24 -5 -6 -25 vhcurveto
          -88 320 callgsubr
          47 -80 -56 vlineto
          -55 28 -28 66 vhcurveto
          278 -42 rmoveto
          -445 36 callsubr
        </CharString>
        <CharString name="dvEight">
          30 callsubr
        </CharString>
        <CharString name="dvEyelash">
          -95 322 378 rmoveto
          -97 -74 callgsubr
          58 -88 -70 vlineto
          -57 26 -30 64 vhcurveto
          124 hlineto
          -342 319 rmoveto
          -70 342 70 vlineto
          endchar
        </CharString>
        <CharString name="dvEyelash_HA">
          151 496 291 callgsubr
          80 70 -596 -70 426 -74 -103 vlineto
          -67 -25 -29 -60 hvcurveto
          -42 -68 vlineto
          11 callgsubr
          23 hvcurveto
          61 -89 -73 vlineto
          -57 26 -30 65 vhcurveto
          134 -2 hlineto
          325 callgsubr
          -31 vvcurveto
          437 callgsubr
          140 callgsubr
          197 70 -174 -51 callsubr
          endchar
        </CharString>
        <CharString name="dvEyelash_YA">
          184 439 182 -26 callsubr
          149 callgsubr
          -621 -70 242 214 callgsubr
          -88 207 callsubr
          58 -88 -70 vlineto
          -57 26 -30 65 vhcurveto
          26 -140 hlineto
          21 callsubr
        </CharString>
        <CharString name="dvFive">
          116 callgsubr
        </CharString>
        <CharString name="dvFour">
          200 callgsubr
        </CharString>
        <CharString name="dvG">
          -34 153 148 rmoveto
          -88 callgsubr
          188 478 rmoveto
          -404 -70 -96 callgsubr
          68 vlineto
          endchar
        </CharString>
        <CharString name="dvGA">
          160 153 148 rmoveto
          -88 callgsubr
          381 478 rmoveto
          -597 -70 -96 callgsubr
          99 255 callgsubr
        </CharString>
        <CharString name="dvGH">
          -151 342 427 callsubr
          -362 -70 74 vlineto
          -5 -5 -3 -8 -13 vvcurveto
          -129 vlineto
          23 callsubr
          -134 vlineto
          -61 32 -28 65 vhcurveto
          199 70 -176 58 callgsubr
          26 5 6 26 vhcurveto
          endchar
        </CharString>
        <CharString name="dvGHA">
          43 298 -33 callgsubr
          -98 58 callgsubr
          30 7 2 37 vhcurveto
          117 hlineto
          149 callgsubr
          -480 -70 77 hlineto
          -7 -6 -4 -10 -14 vvcurveto
          -125 vlineto
          23 callsubr
          -134 vlineto
          -61 32 -28 65 vhcurveto
          120 -38 callgsubr
        </CharString>
        <CharString name="dvGH_MA">
          416 672 176 callsubr
          185 callsubr
          -45 -79 callsubr
          155 -62 callgsubr
          75 hlineto
          -310 -214 rmoveto
          -24 -5 -85 callsubr
          109 -75 callgsubr
          61 71 -61 hlineto
          -24 -5 412 callgsubr
          26 5 6 26 vhcurveto
          308 325 callsubr
          -64 187 callsubr
          -165 vlineto
          336 callsubr
          581 478 rmoveto
          -853 -70 74 hlineto
          -5 -5 -3 -8 -13 vvcurveto
          -129 vlineto
          23 callsubr
          -134 vlineto
          -61 32 -28 65 vhcurveto
          111 hlineto
          28 18 7 13 11 hvcurveto
          -14 15 24 -6 32 hhcurveto
          88 -78 callsubr
          195 106 -362 90 160 callsubr
        </CharString>
        <CharString name="dvGH_NA">
          385 634 482 rmoveto
          -257 379 callsubr
          -215 vlineto
          336 callsubr
          -86 58 callgsubr
          26 5 6 26 vhcurveto
          466 hlineto
          -172 -378 181 callgsubr
          334 214 rmoveto
          -816 -70 74 hlineto
          -5 -5 -3 -8 -13 vvcurveto
          -129 vlineto
          23 callsubr
          -134 vlineto
          -61 32 -28 65 vhcurveto
          111 hlineto
          28 18 7 13 11 hvcurveto
          -14 15 24 -6 32 hhcurveto
          74 -78 callsubr
          245 82 -412 113 callsubr
        </CharString>
        <CharString name="dvGH_R">
          -90 333 427 callsubr
          -353 -70 77 vlineto
          -7 -6 -4 -10 -14 vvcurveto
          -112 367 callsubr
          -123 208 callgsubr
          91 334 callgsubr
          118 181 rlineto
          47 -167 vlineto
          -24 -5 -85 callsubr
          94 vlineto
          25 -34 callsubr
          61 70 -61 -86 callsubr
          94 vlineto
          30 7 2 37 vhcurveto
          endchar
        </CharString>
        <CharString name="dvGH_RA">
          44 299 208 rmoveto
          -24 -8 -8 -24 vhcurveto
          -101 -86 callsubr
          94 -75 callgsubr
          61 70 -61 -86 callsubr
          95 vlineto
          30 7 2 37 vhcurveto
          118 hlineto
          149 callgsubr
          -481 -70 77 hlineto
          -7 -6 -4 -10 -14 vvcurveto
          -113 vlineto
          -30 15 -16 14 callsubr
          -123 208 callgsubr
          58 hlineto
          16 11 -112 -169 rlineto
          98 333 callgsubr
          -100 callgsubr
        </CharString>
        <CharString name="dvGH_YA">
          307 578 182 -5 callsubr
          -7 7 vhcurveto
          95 hlineto
          -292 -178 rmoveto
          -196 vlineto
          336 callsubr
          -86 58 callgsubr
          26 5 6 26 vhcurveto
          193 131 callsubr
          349 248 rmoveto
          -744 -70 74 hlineto
          -5 -5 -3 -8 -13 vvcurveto
          -129 vlineto
          23 callsubr
          -134 vlineto
          -61 32 -28 65 vhcurveto
          111 hlineto
          28 18 7 13 11 hvcurveto
          -13 16 24 -7 31 hhcurveto
          416 callsubr
          556 56 vlineto
          endchar
        </CharString>
        <CharString name="dvG_BA">
          385 529 148 -66 callsubr
          -3 -4 0 -5 hhcurveto
          -465 hmoveto
          -88 callgsubr
          613 478 rmoveto
          -829 -70 -96 callgsubr
          330 -231 vlineto
          161 callgsubr
        </CharString>
        <CharString name="dvG_BHA">
          535 153 148 rmoveto
          -88 callgsubr
          -216 408 rmoveto
          -96 callgsubr
          61 70 -397 vlineto
          615 -448 54 callsubr
        </CharString>
        <CharString name="dvG_BH_YA">
          827 153 148 rmoveto
          -88 callgsubr
          -216 408 rmoveto
          -96 callgsubr
          61 70 -397 vlineto
          1080 -444 -8 callsubr
        </CharString>
        <CharString name="dvG_DA">
          339 153 148 rmoveto
          -88 callgsubr
          483 264 rmoveto
          144 72 70 -771 -70 186 callsubr
          vlineto
          -69 -31 -28 -59 hvcurveto
          -182 vlineto
          -61 29 -28 67 vhcurveto
          90 -78 callsubr
          389 273 -74 -91 vlineto
          -30 callgsubr
          -230 -31 callsubr
        </CharString>
        <CharString name="dvG_DHA">
          422 153 148 rmoveto
          -88 callgsubr
          -216 408 rmoveto
          -96 callgsubr
          62 70 -398 vlineto
          860 hmoveto
          -162 -444 73 callgsubr
          145 -38 callgsubr
        </CharString>
        <CharString name="dvG_DH_VA">
          613 153 148 rmoveto
          -88 callgsubr
          -216 408 rmoveto
          -96 callgsubr
          62 70 -398 vlineto
          1050 hmoveto
          -351 -70 189 -376 hlineto
          314 callgsubr
          -57 379 callsubr
          -215 vlineto
          -72 callgsubr
          -117 -97 callsubr
          -29 27 -61 vhcurveto
          -39 hlineto
          -60 -29 -27 -57 hvcurveto
          -154 vlineto
          -31 14 -15 121 callgsubr
          -30 vvcurveto
          -131 vlineto
          -58 29 -27 60 vhcurveto
          159 hlineto
          23 15 6 15 7 hvcurveto
          -14 15 23 -7 29 hhcurveto
          62 371 callsubr
        </CharString>
        <CharString name="dvG_DH_YA">
          716 153 148 rmoveto
          -88 callgsubr
          -216 408 rmoveto
          -96 callgsubr
          62 70 -398 vlineto
          991 -444 rmoveto
          -72 callgsubr
          -139 hlineto
          -24 -5 180 callsubr
          149 callgsubr
          -454 -70 75 229 callgsubr
          -72 callgsubr
          -117 -97 callsubr
          -29 27 -61 vhcurveto
          -39 hlineto
          -60 -29 -27 -57 hvcurveto
          -154 vlineto
          -31 14 -15 121 callgsubr
          -30 vvcurveto
          -131 vlineto
          -58 29 -27 60 vhcurveto
          159 hlineto
          24 15 6 15 7 hvcurveto
          -14 16 24 -7 32 hhcurveto
          160 -75 callsubr
        </CharString>
        <CharString name="dvG_GA">
          519 512 148 rmoveto
          -88 callgsubr
          -402 hmoveto
          -88 callgsubr
          740 478 rmoveto
          -956 -70 -96 callgsubr
          269 -120 -92 vlineto
          -69 -31 -28 -59 hvcurveto
          -182 vlineto
          -61 29 -28 67 vhcurveto
          90 -78 callsubr
          389 99 255 callgsubr
        </CharString>
        <CharString name="dvG_GHA">
          407 665 -33 callgsubr
          -98 58 callgsubr
          30 7 2 37 vhcurveto
          117 hlineto
          -512 -408 rmoveto
          -88 callgsubr
          631 478 rmoveto
          -847 -70 -96 callgsubr
          108 vlineto
          -7 -6 -4 -10 -14 vvcurveto
          -125 vlineto
          23 callsubr
          -134 vlineto
          -61 32 -28 65 vhcurveto
          120 -38 callgsubr
        </CharString>
        <CharString name="dvG_JA">
          505 153 148 rmoveto
          -88 callgsubr
          728 478 rmoveto
          -944 -70 -96 callgsubr
          446 -74 -174 55 callgsubr
          84 -412 -100 callgsubr
        </CharString>
        <CharString name="dvG_LA">
          502 153 148 rmoveto
          -88 callgsubr
          724 478 rmoveto
          -940 -70 -96 callgsubr
          447 -74 -83 vlineto
          -94 callgsubr
          60 -412 90 556 67 hlineto
          endchar
        </CharString>
        <CharString name="dvG_MA">
          535 790 432 295 callsubr
          -195 -354 -90 callsubr
          -442 -214 rmoveto
          -88 callgsubr
          756 478 rmoveto
          -972 -70 -96 callgsubr
          279 -124 -99 vlineto
          237 callsubr
        </CharString>
        <CharString name="dvG_NA">
          497 580 178 -103 callsubr
          -427 -264 rmoveto
          -88 callgsubr
          719 478 rmoveto
          -935 -70 -96 callgsubr
          437 -74 -257 vlineto
          237 callgsubr
        </CharString>
        <CharString name="dvG_NNA">
          507 586 178 -27 callsubr
          -433 -408 rmoveto
          -88 callgsubr
          728 478 rmoveto
          -944 -70 -96 callgsubr
          90 -389 vlineto
          168 callsubr
          86 255 callgsubr
        </CharString>
        <CharString name="dvG_N_YA">
          793 1048 -42 callsubr
          181 221 callsubr
          79 95 callsubr
          -469 -378 77 callsubr
          -426 -211 rmoveto
          -88 callgsubr
          1014 478 rmoveto
          -1230 -70 -96 callgsubr
          515 231 callsubr
          401 callsubr
          -177 vlineto
          8 callsubr
        </CharString>
        <CharString name="dvG_R">
          2 239 -56 86 callgsubr
        </CharString>
        <CharString name="dvG_RA">
          160 153 220 75 callsubr
        </CharString>
        <CharString name="dvG_R_YA">
          436 691 -32 callgsubr
          -538 -336 78 callgsubr
          657 406 rmoveto
          -873 -70 246 -74 -92 hlineto
          88 callgsubr
          158 vlineto
          3 callsubr
          -153 hlineto
          -260 -281 rlineto
          100 hlineto
          167 180 rlineto
          -31 12 30 -15 47 hhcurveto
          -54 callsubr
        </CharString>
        <CharString name="dvG_SA">
          512 769 348 rmoveto
          -103 hlineto
          -101 callsubr
          96 hlineto
          -616 -408 rmoveto
          -88 callgsubr
          734 478 rmoveto
          -950 -70 -96 callgsubr
          243 150 callgsubr
          275 179 callgsubr
        </CharString>
        <CharString name="dvG_VA">
          338 153 148 rmoveto
          -88 callgsubr
          558 478 rmoveto
          -774 -70 -96 callgsubr
          276 -376 vlineto
          172 callsubr
          -89 90 -81 callsubr
          endchar
        </CharString>
        <CharString name="dvG_YA">
          441 696 -32 callgsubr
          -543 -408 rmoveto
          -88 callgsubr
          662 478 rmoveto
          -878 -70 -96 callgsubr
          163 vlineto
          -19 callgsubr
        </CharString>
        <CharString name="dvGx">
          -34 130 -96 9 callsubr
          23 149 rmoveto
          -88 callgsubr
          188 478 rmoveto
          -404 -70 -96 callgsubr
          68 vlineto
          endchar
        </CharString>
        <CharString name="dvGxA">
          160 130 -94 9 callsubr
          23 147 rmoveto
          -88 callgsubr
          381 478 rmoveto
          -597 -70 -96 callgsubr
          99 255 callgsubr
        </CharString>
        <CharString name="dvGx_R">
          2 348 -114 9 callsubr
          -109 -37 86 callgsubr
        </CharString>
        <CharString name="dvGx_RA">
          160 321 -140 9 callsubr
          -168 265 75 callsubr
        </CharString>
        <CharString name="dvH">
          -35 337 291 callgsubr
          114 70 -471 417 callsubr
          -70 15 callgsubr
          -139 vlineto
          -61 140 callgsubr
          197 70 -174 -82 callsubr
          114 -62 callgsubr
          280 71 -280 -74 callgsubr
          42 264 callgsubr
        </CharString>
        <CharString name="dvHA">
          -8 337 291 callgsubr
          80 70 -437 417 callsubr
          109 callgsubr
          437 callgsubr
          140 callgsubr
          197 70 -174 -51 callsubr
          endchar
        </CharString>
        <CharString name="dvHA_mU">
          -8 337 291 callgsubr
          80 70 -437 417 callsubr
          109 callgsubr
          437 callgsubr
          27 -28 69 vhcurveto
          77 hlineto
          26 5 -5 -26 hvcurveto
          -30 vlineto
          -26 -5 -5 -26 vhcurveto
          -65 hlineto
          -25 -16 7 415 callsubr
          -64 37 30 -14 78 hhcurveto
          100 hlineto
          60 152 callgsubr
          55 vlineto
          62 140 callsubr
          -85 -51 callsubr
          endchar
        </CharString>
        <CharString name="dvHA_mUU">
          0 390 -5 rmoveto
          58 -37 -22 17 -76 hhcurveto
          -84 -51 callsubr
          166 144 80 70 -437 265 callsubr
          -142 vlineto
          -40 11 -25 28 -12 vhcurveto
          -2 -8 -1 -10 -11 vvcurveto
          -55 vlineto
          -61 28 -28 60 vhcurveto
          85 71 -54 96 callsubr
          30 vlineto
          26 5 5 26 vhcurveto
          47 hlineto
          25 12 -12 -20 12 hvcurveto
          81 -129 rlineto
          103 hlineto
          endchar
        </CharString>
        <CharString name="dvHA_mvR">
          -11 334 255 callsubr
          80 70 -434 183 callgsubr
          -60 vlineto
          -31 24 callgsubr
          -148 vlineto
          -61 140 callgsubr
          197 66 -174 -82 callsubr
          136 -62 callgsubr
          53 hlineto
          11 4 -4 -8 hvcurveto
          -20 -38 -33 -39 vvcurveto
          -36 25 -15 43 vhcurveto
          65 58 -39 hlineto
          -11 -4 4 8 hvcurveto
          21 40 35 41 vvcurveto
          37 -25 15 -44 vhcurveto
          -80 -74 callgsubr
          33 264 callgsubr
        </CharString>
        <CharString name="dvH_LA">
          139 334 255 callsubr
          229 70 -583 153 callsubr
          -242 vlineto
          -62 31 -27 65 vhcurveto
          194 66 -171 276 callgsubr
          232 -63 callsubr
          23 vhcurveto
          228 26 callgsubr
          -15 -48 vlineto
          -23 -9 -9 -14 -6 hvcurveto
          -1 hlineto
          16 -5 -13 7 -29 hhcurveto
          -31 hlineto
          -47 -24 -20 -46 hvcurveto
          -68 vlineto
          -47 24 -21 47 vhcurveto
          64 55 -50 hlineto
          -20 -4 4 21 hvcurveto
          45 vlineto
          20 4 5 20 vhcurveto
          9 hlineto
          21 4 -5 -20 hvcurveto
          -33 61 33 vlineto
          20 4 5 20 vhcurveto
          32 -149 69 228 hlineto
          54 -26 26 -57 vhcurveto
          -244 hlineto
          -23 -6 6 23 hvcurveto
          40 264 callgsubr
        </CharString>
        <CharString name="dvH_MA">
          177 437 248 rmoveto
          -93 hlineto
          45 -5 -26 22 -53 hhcurveto
          -89 98 callsubr
          166 144 100 hlineto
          149 callgsubr
          -619 265 callsubr
          437 callgsubr
          140 callgsubr
          197 70 -174 -82 callsubr
          115 -63 callsubr
          23 vhcurveto
          54 26 callgsubr
          -88 90 56 92 -183 -100 callgsubr
        </CharString>
        <CharString name="dvH_NA">
          27 334 255 callsubr
          110 70 -464 183 callgsubr
          -44 vlineto
          -31 24 callgsubr
          -164 vlineto
          -61 140 callgsubr
          192 66 -169 -82 callsubr
          154 -63 callsubr
          23 vhcurveto
          128 hlineto
          24 7 -5 -25 hvcurveto
          -16 -71 vlineto
          -55 -24 -24 -54 hvcurveto
          -27 71 20 -75 callgsubr
          50 -67 66 150 hlineto
          53 -26 27 -57 vhcurveto
          -142 -74 callgsubr
          17 264 callgsubr
        </CharString>
        <CharString name="dvH_NNA">
          88 289 177 rmoveto
          -13 -3 -4 -12 vhcurveto
          -13 hlineto
          -13 -3 4 13 hvcurveto
          103 44 vlineto
          45 134 rmoveto
          142 171 70 -525 183 callgsubr
          -44 vlineto
          -31 24 callgsubr
          -164 353 callsubr
          154 -63 callsubr
          23 vhcurveto
          14 -110 hlineto
          -38 19 -23 39 vhcurveto
          49 hlineto
          38 20 23 38 hvcurveto
          110 13 vlineto
          23 6 -5 -25 hvcurveto
          -53 70 64 vlineto
          53 -26 27 -57 vhcurveto
          -208 -74 callgsubr
          17 264 callgsubr
        </CharString>
        <CharString name="dvH_RA">
          46 334 255 callsubr
          129 70 -483 153 callsubr
          -140 353 callsubr
          130 -63 callsubr
          23 vhcurveto
          75 hlineto
          -69 -141 rlineto
          71 hlineto
          69 141 rlineto
          16 -2 4 -7 -21 vvcurveto
          -59 69 70 vlineto
          54 -27 26 -57 vhcurveto
          -151 hlineto
          -23 -6 6 23 hvcurveto
          40 264 callgsubr
        </CharString>
        <CharString name="dvH_VA">
          76 334 255 callsubr
          166 70 -520 153 callsubr
          -242 vlineto
          -62 31 -27 65 vhcurveto
          190 66 -167 276 callgsubr
          232 -63 callsubr
          23 vhcurveto
          164 26 callgsubr
          -109 vlineto
          -72 callgsubr
          -59 hlineto
          -20 -4 4 21 hvcurveto
          15 vlineto
          21 4 4 20 vhcurveto
          44 53 -59 hlineto
          -47 -23 -21 -45 hvcurveto
          -39 vlineto
          -47 23 -21 47 vhcurveto
          76 hlineto
          14 11 3 6 7 hvcurveto
          -47 69 248 vlineto
          54 -27 26 -57 vhcurveto
          -179 hlineto
          -23 -6 6 23 hvcurveto
          40 264 callgsubr
        </CharString>
        <CharString name="dvH_YA">
          187 440 228 rmoveto
          -72 callgsubr
          -81 hlineto
          8 8 4 13 15 vvcurveto
          12 vlineto
          58 -24 30 -65 vhcurveto
          -77 -74 callgsubr
          28 97 callgsubr
          163 142 106 hlineto
          161 70 rmoveto
          -621 -70 264 -74 -100 -21 callsubr
          -55 vlineto
          -31 24 callgsubr
          -153 353 callsubr
          143 -63 callsubr
          23 vhcurveto
          61 hlineto
          23 5 -5 -23 hvcurveto
          -19 vlineto
          -23 -5 -5 -23 vhcurveto
          -34 -61 210 hlineto
          14 11 3 6 7 hvcurveto
          -142 226 callgsubr
        </CharString>
        <CharString name="dvI">
          -31 311 255 callsubr
          75 70 -406 27 callsubr
          endchar
        </CharString>
        <CharString name="dvII">
          -31 311 255 callsubr
          75 70 -75 59 vlineto
          24 6 4 24 vhcurveto
          38 68 -66 hlineto
          -65 311 callsubr
          -71 -241 27 callsubr
          endchar
        </CharString>
        <CharString name="dvII_Anusvara">
          -31 311 737 rmoveto
          24 6 4 24 vhcurveto
          42 68 -70 hlineto
          -65 311 callsubr
          -123 -241 27 callsubr
          158 142 75 70 -75 hlineto
          32 105 rmoveto
          -75 71 75 vlineto
          endchar
        </CharString>
        <CharString name="dvJ">
          -51 433 144 callsubr
        </CharString>
        <CharString name="dvJA">
          143 560 626 rmoveto
          -580 -70 418 -74 -174 218 callgsubr
          84 -412 -100 callgsubr
        </CharString>
        <CharString name="dvJH">
          -21 318 255 callsubr
          144 70 -482 428 callsubr
          -93 vlineto
          -42 callgsubr
          136 68 -300 371 callgsubr
        </CharString>
        <CharString name="dvJHA">
          173 428 320 rmoveto
          -266 hlineto
          139 callgsubr
          110 hlineto
          149 callgsubr
          -614 -70 251 -74 -93 hlineto
          -42 callgsubr
          102 -252 290 callsubr
        </CharString>
        <CharString name="dvJH_MA">
          541 796 432 295 callsubr
          -195 -354 -90 callsubr
          -443 -42 rmoveto
          139 callgsubr
          287 374 callsubr
          -27 vlineto
          548 306 rmoveto
          -982 428 callsubr
          -93 hlineto
          -42 callgsubr
          88 -61 286 callsubr
        </CharString>
        <CharString name="dvJH_NA">
          508 763 419 callsubr
          -77 -252 vlineto
          139 callgsubr
          445 hlineto
          -173 -378 89 callsubr
          -945 428 callsubr
          -93 hlineto
          -42 callgsubr
          88 -85 hlineto
          117 callgsubr
        </CharString>
        <CharString name="dvJH_R">
          80 309 -70 rmoveto
          198 205 rlineto
          95 vlineto
          -301 -300 rlineto
          112 484 rmoveto
          142 189 70 -527 428 callsubr
          -93 vlineto
          -42 callgsubr
          181 68 -345 371 callgsubr
        </CharString>
        <CharString name="dvJH_RA">
          173 428 330 rmoveto
          -266 410 callgsubr
          34 -75 callgsubr
          156 135 110 hlineto
          149 callgsubr
          -614 -70 251 -70 -93 hlineto
          -64 -27 -27 -55 hvcurveto
          -58 vlineto
          -55 27 -27 64 vhcurveto
          74 11 callsubr
          -4 -24 hvcurveto
          -58 234 callsubr
          -74 49 -90 -199 90 85 102 hlineto
          65 27 27 55 hvcurveto
          78 vlineto
          7 0 6 -1 6 vhcurveto
          101 -79 hlineto
          -234 -237 rlineto
          96 hlineto
          138 146 rlineto
          -94 -100 callgsubr
        </CharString>
        <CharString name="dvJH_YA">
          447 702 -32 callgsubr
          -544 -236 rmoveto
          139 callgsubr
          171 hlineto
          3 callsubr
          -58 hlineto
          454 306 rmoveto
          -888 428 callsubr
          -93 hlineto
          -42 callgsubr
          88 -85 hlineto
          -74 callsubr
        </CharString>
        <CharString name="dvJ_BA">
          386 524 148 rmoveto
          -24 -5 -60 callsubr
          -4 -4 0 -4 hhcurveto
          190 400 callsubr
          -231 hlineto
          127 callgsubr
          -377 218 callgsubr
          184 callsubr
          100 callgsubr
          113 280 callsubr
        </CharString>
        <CharString name="dvJ_DA">
          332 678 291 callgsubr
          77 70 -775 -70 607 -74 -363 55 callgsubr
          184 callsubr
          -230 363 callsubr
          271 -90 426 callsubr
          -24 vhcurveto
          -37 hlineto
          -24 -5 95 callgsubr
          24 vhcurveto
          endchar
        </CharString>
        <CharString name="dvJ_DDA">
          351 callgsubr
          -343 55 callgsubr
          184 callsubr
          -91 callsubr
          endchar
        </CharString>
        <CharString name="dvJ_JA">
          432 callgsubr
          779 -74 -174 -304 hlineto
          84 callsubr
          -271 55 callgsubr
          91 -245 -44 callgsubr
          84 -412 -100 callgsubr
        </CharString>
        <CharString name="dvJ_JHA">
          535 790 320 rmoveto
          -266 hlineto
          139 callgsubr
          110 hlineto
          149 callgsubr
          -972 -70 609 -74 -365 218 callgsubr
          184 callsubr
          -60 345 callgsubr
          74 35 callgsubr
          -64 vlineto
          -24 -5 41 callsubr
          102 -252 290 callsubr
        </CharString>
        <CharString name="dvJ_J_NYA">
          487 897 626 rmoveto
          -917 -70 754 -80 -510 -298 hlineto
          7 callsubr
          298 -90 -309 -88 callsubr
          239 218 vlineto
          23 6 -5 -24 hvcurveto
          -218 -36 callsubr
          -57 78 -91 -221 91 75 85 hlineto
          64 386 callgsubr
          233 vlineto
          13 -3 8 -5 5 vhcurveto
          91 -406 91 -60 callgsubr
          hlineto
          endchar
        </CharString>
        <CharString name="dvJ_J_VA">
          692 1109 626 rmoveto
          -1129 -70 967 64 callgsubr
          -322 -304 hlineto
          407 callgsubr
          304 -271 55 callgsubr
          91 -245 -44 callgsubr
          85 vlineto
          -2 -7 0 -9 -8 vvcurveto
          -221 vlineto
          137 callgsubr
        </CharString>
        <CharString name="dvJ_J_YA">
          788 1043 -20 callsubr
          204 -16 callsubr
          58 vlineto
          13 -3 9 -5 7 vhcurveto
          92 hlineto
          149 callgsubr
          -1225 -70 849 hlineto
          38 3 -4 -26 hvcurveto
          -45 -13 callgsubr
          -263 -274 40 callgsubr
          -31 -82 callsubr
          274 -264 -274 302 callgsubr
          274 -90 -285 267 callsubr
          84 -215 267 callsubr
          83 -215 vlineto
          92 callsubr
        </CharString>
        <CharString name="dvJ_KA">
          518 932 427 callsubr
          -952 -70 614 -376 vlineto
          314 callgsubr
          -329 218 callgsubr
          92 282 callsubr
          380 0 callsubr
          23 vhcurveto
          38 hlineto
          24 5 -5 -25 hvcurveto
          -207 vlineto
          -24 -5 -69 callsubr
        </CharString>
        <CharString name="dvJ_MA">
          536 791 176 callsubr
          -354 rmoveto
          208 callsubr
          -44 -79 callsubr
          131 -62 callgsubr
          75 hlineto
          358 264 rmoveto
          -973 -70 615 -124 -371 -254 hlineto
          7 callsubr
          254 -90 -265 -88 callsubr
          195 184 callsubr
          -156 vlineto
          337 callgsubr
          88 238 callsubr
        </CharString>
        <CharString name="dvJ_NA">
          498 581 283 callsubr
          334 214 rmoveto
          -935 -70 773 -74 -529 218 callgsubr
          184 callsubr
          -230 vlineto
          -49 callsubr
          29 28 61 hvcurveto
          245 82 -412 113 callsubr
        </CharString>
        <CharString name="dvJ_NY">
          -53 68 406 rmoveto
          199 callsubr
          133 70 -370 hlineto
          -88 150 rmoveto
          -70 458 70 vlineto
          endchar
        </CharString>
        <CharString name="dvJ_NYA">
          142 559 626 rmoveto
          -579 -70 416 -80 -328 -70 199 callsubr
          91 -406 90 556 73 hlineto
          endchar
        </CharString>
        <CharString name="dvJ_NY_YA">
          431 686 -20 callsubr
          172 -16 callsubr
          88 61 callgsubr
          149 callgsubr
          -868 -70 490 hlineto
          426 callgsubr
          -74 381 callgsubr
          -416 -71 126 224 callsubr
          -23 hvcurveto
          -163 -36 callsubr
          -57 78 -91 -221 91 75 84 348 callsubr
          178 vlineto
          12 -3 8 -4 5 vhcurveto
          88 -183 hlineto
          -61 32 -28 65 vhcurveto
          160 104 callgsubr
        </CharString>
        <CharString name="dvJ_R">
          101 callgsubr
          endchar
        </CharString>
        <CharString name="dvJ_RA">
          143 560 626 108 callgsubr
        </CharString>
        <CharString name="dvJ_TA">
          362 779 626 rmoveto
          -799 -70 637 -74 -393 218 callgsubr
          184 callsubr
          -312 vlineto
          -57 27 -28 64 258 callsubr
        </CharString>
        <CharString name="dvJ_TTA">
          322 670 291 callgsubr
          69 70 -759 -70 599 -74 -355 55 callgsubr
          184 callsubr
          1 callsubr
        </CharString>
        <CharString name="dvJ_VA">
          339 756 626 rmoveto
          -776 -70 614 -376 hlineto
          -24 -8 -8 -24 -28 callgsubr
          205 -75 callgsubr
          29 70 -329 218 callgsubr
          92 282 callsubr
          -81 callsubr
          endchar
        </CharString>
        <CharString name="dvJ_YA">
          435 690 182 42 callsubr
        </CharString>
        <CharString name="dvJx">
          -51 134 hmoveto
          -95 83 95 vlineto
          216 144 callsubr
        </CharString>
        <CharString name="dvJxA">
          143 136 -93 9 callsubr
          424 624 rmoveto
          -580 -70 418 -74 -174 218 callgsubr
          84 -412 -100 callgsubr
        </CharString>
        <CharString name="dvJx_JxA">
          504 137 -87 9 callsubr
          366 -95 9 callsubr
          418 618 rmoveto
          -941 -70 779 -74 -174 -304 hlineto
          84 callsubr
          -271 55 callgsubr
          91 -245 -44 callgsubr
          84 -412 -100 callgsubr
        </CharString>
        <CharString name="dvJx_R">
          101 callgsubr
          -128 -184 434 callgsubr
        </CharString>
        <CharString name="dvJx_RA">
          143 322 -132 9 callsubr
          238 663 108 callgsubr
        </CharString>
        <CharString name="dvJx_YA">
          435 135 -93 9 callsubr
          555 180 42 callsubr
        </CharString>
        <CharString name="dvK">
          -16 469 427 callsubr
          -489 -70 249 -376 vlineto
          -107 callgsubr
          350 0 callsubr
          24 vhcurveto
          118 70 -114 hlineto
          263 callsubr
          vlineto
          endchar
        </CharString>
        <CharString name="dvKA">
          151 568 556 -67 callsubr
        </CharString>
        <CharString name="dvKH">
          72 421 374 rmoveto
          313 callsubr
          132 71 -106 -11 callgsubr
          -441 416 rmoveto
          -70 188 vlineto
          2 callsubr
          274 70 hlineto
          endchar
        </CharString>
        <CharString name="dvKHA">
          260 677 626 37 callsubr
        </CharString>
        <CharString name="dvKH_KHA">
          732 1149 626 rmoveto
          -1169 -90 callgsubr
          358 hlineto
          26 5 -6 -26 hvcurveto
          -179 vlineto
          -26 -5 -6 -26 vhcurveto
          -32 158 -90 -254 hlineto
          -35 callgsubr
          -38 vlineto
          82 callsubr
          -27 vhcurveto
          -30 131 callgsubr
          35 68 -60 hlineto
          -64 -28 40 callsubr
          -187 vlineto
          -61 -27 callgsubr
          54 260 callsubr
        </CharString>
        <CharString name="dvKH_MA">
          616 885 432 rmoveto
          -86 124 86 hlineto
          -176 -354 -90 callsubr
          338 264 rmoveto
          -1067 -90 callgsubr
          427 374 callsubr
          -139 396 callsubr
          183 vlineto
          -36 callgsubr
          -206 vlineto
          -62 326 callgsubr
          58 hlineto
          26 20 7 18 9 hvcurveto
          -17 15 26 -8 36 hhcurveto
          89 304 callsubr
          86 -362 -100 callgsubr
        </CharString>
        <CharString name="dvKH_NA">
          612 694 178 rmoveto
          -76 callsubr
          24 vhcurveto
          56 hlineto
          335 214 rmoveto
          -1049 -90 callgsubr
          585 319 callgsubr
          -180 vlineto
          -27 -10 -9 -27 vhcurveto
          -31 -11 callgsubr
          175 vlineto
          -36 callgsubr
          -198 vlineto
          -61 -27 callgsubr
          58 hlineto
          20 14 5 10 8 hvcurveto
          -32 12 29 -15 49 hhcurveto
          88 callsubr
        </CharString>
        <CharString name="dvKH_R">
          88 137 243 49 callgsubr
        </CharString>
        <CharString name="dvKH_RA">
          260 677 626 31 callsubr
        </CharString>
        <CharString name="dvKH_SHA">
          620 137 243 -33 callsubr
        </CharString>
        <CharString name="dvKH_TA">
          475 892 626 rmoveto
          -912 -70 188 hlineto
          2 callsubr
          448 -74 -120 -21 callsubr
          -180 vlineto
          -35 callgsubr
          -40 123 callsubr
        </CharString>
        <CharString name="dvKH_VA">
          439 856 626 -4 callgsubr
        </CharString>
        <CharString name="dvKH_YA">
          555 810 182 -20 callgsubr
        </CharString>
        <CharString name="dvKHx">
          72 134 -154 9 callsubr
          287 433 rmoveto
          313 callsubr
          132 71 -106 -11 callgsubr
          -441 416 rmoveto
          -70 188 vlineto
          2 callsubr
          274 70 hlineto
          endchar
        </CharString>
        <CharString name="dvKHxA">
          260 134 -154 9 callsubr
          543 685 37 callsubr
        </CharString>
        <CharString name="dvKHx_MA">
          616 134 -154 9 callsubr
          751 491 rmoveto
          -86 124 86 hlineto
          -176 -354 -90 callsubr
          338 264 rmoveto
          -1067 -90 callgsubr
          427 374 callsubr
          -139 396 callsubr
          183 vlineto
          -36 callgsubr
          -206 vlineto
          -62 326 callgsubr
          58 hlineto
          26 20 7 18 9 hvcurveto
          -17 15 26 -8 36 hhcurveto
          89 304 callsubr
          86 -362 -100 callgsubr
        </CharString>
        <CharString name="dvKHx_R">
          88 183 -143 9 callsubr
          -46 291 49 callgsubr
        </CharString>
        <CharString name="dvKHx_RA">
          260 453 -140 9 callsubr
          224 671 31 callsubr
        </CharString>
        <CharString name="dvKHx_SA">
          630 134 -154 9 callsubr
          749 407 rmoveto
          -103 hlineto
          -101 callsubr
          96 hlineto
          161 70 rmoveto
          -1064 -90 callgsubr
          391 hlineto
          138 callgsubr
          -234 200 callsubr
          28 68 -52 136 callsubr
          91 177 callsubr
          125 -90 -113 vlineto
          -24 -6 -5 -22 137 callsubr
        </CharString>
        <CharString name="dvKHx_SHA">
          620 134 -154 9 callsubr
          3 302 -33 callsubr
        </CharString>
        <CharString name="dvKHx_TA">
          475 134 -154 9 callsubr
          758 685 rmoveto
          -912 -70 188 hlineto
          2 callsubr
          448 -74 -120 -21 callsubr
          -180 vlineto
          -35 callgsubr
          -40 123 callsubr
        </CharString>
        <CharString name="dvKHx_VA">
          439 134 -154 9 callsubr
          722 685 -4 callgsubr
        </CharString>
        <CharString name="dvKHx_YA">
          555 134 -154 9 callsubr
          676 241 -20 callgsubr
        </CharString>
        <CharString name="dvK_CA">
          365 620 180 rmoveto
          -24 -8 -8 -24 vhcurveto
          -53 -86 callsubr
          174 vlineto
          28 7 2 35 vhcurveto
          24 70 -217 hlineto
          263 callsubr
          301 358 callgsubr
          -802 -105 callgsubr
          350 0 callsubr
          24 vhcurveto
          74 335 callsubr
          -183 vlineto
          -61 -27 callgsubr
          79 -75 callsubr
        </CharString>
        <CharString name="dvK_DA">
          345 319 556 rmoveto
          281 -100 -245 273 callsubr
          371 -59 rmoveto
          170 78 70 -788 -70 249 -376 vlineto
          -107 callgsubr
          354 345 callsubr
          68 hlineto
          192 callgsubr
          -204 363 callsubr
          269 -90 -89 vlineto
          -24 -8 -8 -24 vhcurveto
          -37 -86 callsubr
          178 -58 callgsubr
          endchar
        </CharString>
        <CharString name="dvK_JA">
          517 772 482 rmoveto
          -174 -304 hlineto
          407 callgsubr
          304 -153 vlineto
          -17 -11 -3 -7 -8 hvcurveto
          84 453 358 callgsubr
          -954 -105 callgsubr
          380 125 callgsubr
          67 -245 111 callsubr
        </CharString>
        <CharString name="dvK_KA">
          517 595 180 -15 callsubr
        </CharString>
        <CharString name="dvK_KHA">
          631 571 345 rmoveto
          -34 callgsubr
          -31 139 -153 hlineto
          263 callsubr
          220 vlineto
          277 callsubr
          477 102 rmoveto
          -1068 -105 callgsubr
          350 0 callsubr
          24 vhcurveto
          67 -295 hlineto
          -60 31 -27 69 vhcurveto
          242 73 -221 hlineto
          -25 -6 5 26 hvcurveto
          139 61 vlineto
          64 28 -40 callsubr
          236 -339 hlineto
          -27 -10 -9 -27 vhcurveto
          -31 276 callgsubr
          164 vlineto
          24 6 5 23 71 callgsubr
          -187 vlineto
          -61 -27 callgsubr
          54 hlineto
          20 12 4 10 8 hvcurveto
          -124 87 -101 callgsubr
        </CharString>
        <CharString name="dvK_LA">
          516 777 452 353 callgsubr
          -239 hlineto
          263 callsubr
          458 vlineto
          156 70 rmoveto
          -953 -105 callgsubr
          350 0 callsubr
          24 vhcurveto
          68 hlineto
          -1 -6 435 callgsubr
          -278 vlineto
          -22 callgsubr
          64 vhcurveto
          87 73 -59 410 callgsubr
          251 vlineto
          25 -34 callsubr
          31 hlineto
          25 5 -6 -24 hvcurveto
          -167 90 167 6 callsubr
          60 -382 90 556 66 hlineto
          endchar
        </CharString>
        <CharString name="dvK_MA">
          549 804 176 callsubr
          -354 rmoveto
          208 callsubr
          -44 -79 callsubr
          131 -62 callgsubr
          75 hlineto
          -289 194 rmoveto
          289 -124 -253 273 callsubr
          647 205 rmoveto
          -986 -105 callgsubr
          330 345 callsubr
          68 hlineto
          192 callgsubr
          -156 vlineto
          337 callgsubr
          88 238 callsubr
        </CharString>
        <CharString name="dvK_NA">
          511 766 452 rmoveto
          -411 hlineto
          263 callsubr
          324 callgsubr
          175 262 callsubr
          334 244 rmoveto
          -948 -105 callgsubr
          350 0 callsubr
          24 vhcurveto
          68 hlineto
          192 callgsubr
          -200 vlineto
          -49 callsubr
          29 28 61 hvcurveto
          215 82 -382 -100 callgsubr
        </CharString>
        <CharString name="dvK_NNA">
          521 600 178 rmoveto
          407 callgsubr
          378 90 vlineto
          -245 210 callgsubr
          101 -104 vlineto
          518 174 rmoveto
          -958 -105 callgsubr
          350 0 callsubr
          24 vhcurveto
          69 -215 120 callgsubr
          86 255 callgsubr
        </CharString>
        <CharString name="dvK_PA">
          353 614 19 callgsubr
          -259 210 callgsubr
          106 -104 vlineto
          351 174 rmoveto
          -796 -105 callgsubr
          350 0 callsubr
          24 vhcurveto
          74 -215 196 callsubr
        </CharString>
        <CharString name="dvK_PHA">
          530 608 37 callgsubr
          -253 210 callgsubr
          100 -104 vlineto
          528 104 rmoveto
          70 -967 -70 249 -376 vlineto
          -107 callgsubr
          350 0 callsubr
          24 vhcurveto
          68 -215 hlineto
          -61 30 -28 60 vhcurveto
          63 hlineto
          17 11 3 8 8 hvcurveto
          -89 -99 callgsubr
        </CharString>
        <CharString name="dvK_P_RA">
          353 609 208 79 callsubr
          350 99 vlineto
          -254 210 callgsubr
          101 -104 vlineto
          351 174 rmoveto
          -791 -105 callgsubr
          350 0 callsubr
          24 vhcurveto
          69 -187 hlineto
          -61 30 -28 59 vhcurveto
          46 callgsubr
        </CharString>
        <CharString name="dvK_R">
          49 494 427 callsubr
          -514 -7 callgsubr
          350 125 callgsubr
          143 70 -139 hlineto
          263 callsubr
          vlineto
          endchar
        </CharString>
        <CharString name="dvK_RA">
          151 568 427 callsubr
          -588 -7 callgsubr
          380 125 callgsubr
          37 26 callgsubr
          -179 94 callgsubr
          202 239 callsubr
        </CharString>
        <CharString name="dvK_SA">
          526 782 144 callgsubr
          339 102 rmoveto
          -963 -70 249 -376 hlineto
          62 callgsubr
          274 -278 90 160 callsubr
        </CharString>
        <CharString name="dvK_SHA">
          523 514 628 243 callsubr
          24 5 -5 -24 hvcurveto
          -166 vlineto
          379 callgsubr
          50 -156 273 callsubr
          186 58 70 -397 -70 249 -376 vlineto
          -107 callgsubr
          278 125 callgsubr
          70 -225 hlineto
          136 callgsubr
          72 70 vlineto
          endchar
        </CharString>
        <CharString name="dvK_SS">
          51 170 531 rmoveto
          6 callgsubr
          24 vhcurveto
          35 26 callgsubr
          -139 19 callsubr
          -35 hlineto
          -23 -7 5 24 hvcurveto
          311 -98 rmoveto
          69 -134 vlineto
          -65 callsubr
          endchar
        </CharString>
</ttFont>
